<?xml version="1.0" encoding="utf-8"?>
<!-- Generator: Adobe Illustrator 16.0.0, SVG Export Plug-In . SVG Version: 6.00 Build 0)  -->
<!DOCTYPE svg PUBLIC "-//W3C//DTD SVG 1.1//EN" "http://www.w3.org/Graphics/SVG/1.1/DTD/svg11.dtd">
<svg version="1.1" xmlns="http://www.w3.org/2000/svg" xmlns:xlink="http://www.w3.org/1999/xlink" x="0px" y="0px"
	 width="895.888px" height="1159.855px" viewBox="0 0 895.888 1159.855" enable-background="new 0 0 895.888 1159.855"
	 xml:space="preserve">
<g id="Layer_2" display="none">
	<rect display="inline" fill-rule="evenodd" clip-rule="evenodd" fill="#9C9C9C" width="895.888" height="1160.149"/>
</g>
<g id="Logo_UKDW_item_xA0_Image_1_">
	<path fill-rule="evenodd" clip-rule="evenodd" d="M33.083,1030.211c8.491,6.277,16.961,11.012,26.73,13.055
		c4.166,0.871,8.285,1.844,12.588,1.539c5.293-0.375,6.505-2.588,4.5-7.366c-2.889-6.89-8.706-11.133-14.278-15.205
		c-21.085-15.409-37.419-34.506-47.912-59.421c1.591,0.865,2.763,1.382,3.806,2.087c17.728,11.989,37.334,19.027,58.285,23.01
		c13.932,2.649,28.371,2.444,41.838,7.789c8.241,3.271,12.439,11.589,10.924,20.175c-2.209,12.52-9.562,20.4-20.341,25.994
		c-2.743,1.424-3.789,4.588-5.271,7.144c-6.93,11.959-10.288,25.014-10.903,38.717c-0.17,3.792-1.728,4.269-4.329,2.978
		c-9.538-4.736-18.804-9.811-27.203-16.6c-10.247-8.284-17.644-18.567-23.605-30.006
		C35.792,1040.029,33.102,1035.92,33.083,1030.211z"/>
	<path fill-rule="evenodd" clip-rule="evenodd" d="M857.053,1027.169c-1.039,7.999-3.78,14.535-7.306,20.541
		c-10.278,17.51-24.422,31.136-42.631,40.343c-10.263,5.189-10.711,4.749-11.334-6.493c-0.701-12.668-3.543-24.847-9.667-36.126
		c-1.078-1.984-2.402-2.895-4.552-3.828c-12.179-5.285-21.675-14.112-20.757-30.687c0.406-7.341,4.663-14.543,12.937-16.386
		c10.34-2.304,20.84-2.882,31.214-4.593c12.12-1.999,23.99-4.792,35.321-9.386c12.235-4.961,23.653-11.567,34.735-19.843
		c-3.112,10.078-8.419,18.473-14.203,26.487c-9.373,12.991-20.959,23.784-33.907,33.249c-3.757,2.746-7.072,6.345-9.778,10.401
		c-1.953,2.927-3.547,5.956-1.564,8.967c2.368,3.595,6.402,3.661,10.229,2.524C836.622,1039.123,846.321,1033.493,857.053,1027.169z
		"/>
	<path fill-rule="evenodd" clip-rule="evenodd" d="M760.073,1036.465c1.834,1.917,3.13,3.271,4.444,4.645
		C759.878,1043.402,759.455,1040.863,760.073,1036.465z"/>
	<path fill-rule="evenodd" clip-rule="evenodd" d="M129.961,1038.134c0.94,3.081-0.711,4.338-5.058,3.41
		C126.766,1040.287,128.414,1039.176,129.961,1038.134z"/>
	<path fill-rule="evenodd" clip-rule="evenodd" d="M788.135,1091.168c-1.023-11.235-2.218-22.307-5.451-33.059
		c-0.839-2.787-1.086-7.196-5.584-7.261c-11.589-0.166-23.191-0.894-34.746-0.884c-100.89,0.087-201.785-1.161-302.667,0.912
		c-12.342,0.254-24.63-1.465-37.003-0.189c-8.384,0.864-16.827-0.553-25.242-0.796c-14.081-0.408-28.177,0.678-42.244,0.744
		c-72.477,0.346-144.957,0.16-217.435,0.16c-1.166,0-2.334,0.043-3.498-0.011c-1.236-0.058-2.016,0.134-2.598,1.55
		c-1.4,3.406-3.327,6.6-4.703,10.015c-6.069,15.065-6.549,30.888-6.016,46.809c0.433,12.894,3.354,25.188,8.639,37.014
		c1.882,4.211,4.179,5.723,8.852,5.717c109.134-0.137,218.27-0.105,327.403-0.105c108.802,0,217.603,0,326.404,0
		c7.804,0,8.739-0.426,10.517-7.957C786.846,1126.532,789.781,1109.234,788.135,1091.168z M173.663,1119.74
		c-4.775,7.536-12.146,9.315-19.874,9.907c-8.097,0.62-16.283,0.005-24.423,0.21c-2.921,0.073-3.562-0.902-3.499-3.633
		c0.176-7.643,0.061-15.292,0.061-22.938c0-7.48-0.031-14.961,0.034-22.44c0.01-1.125-0.766-3.089,1.414-2.993
		c11.501,0.51,23.129-1.609,34.501,1.401c9.225,2.443,13.963,9.374,14.794,18.123
		C177.376,1104.803,178.202,1112.575,173.663,1119.74z M223.143,1129.859c-9.033,1.543-17.852,1.568-26.145-2.576
		c-6.608-3.303-9.917-9.077-10.059-16.501c-0.096-4.989-0.019-9.981-0.019-14.973c0-4.991,0.114-9.985-0.05-14.972
		c-0.077-2.342,0.536-3.307,3.012-3.078c4.577,0.422,10.524-1.893,13.354,0.98c2.191,2.224,0.639,8.18,0.671,12.479
		c0.043,5.821-0.006,11.645,0.015,17.468c0.024,6.297,3.726,10.052,9.912,10.101c5.242,0.041,9.079-4.097,9.081-9.807
		c0.004-9.316,0.1-18.635-0.062-27.948c-0.046-2.642,0.727-3.438,3.329-3.294c3.815,0.213,7.65,0.088,11.476,0.043
		c2.362-0.027,2.603,1.13,2.557,3.257c-0.189,8.718-0.89,17.419,0.47,26.16C242.271,1117.387,233.443,1128.101,223.143,1129.859z
		 M282.908,1100.386c0,8.495-0.101,16.991,0.057,25.482c0.052,2.792-0.252,4.313-3.657,3.992c-4.27-0.402-9.912,1.346-12.528-0.802
		c-2.754-2.26-0.618-8.099-0.849-12.365c-0.117-2.159-0.021-4.33-0.021-6.496c0-5.163-0.243-10.342,0.085-15.485
		c0.22-3.454-1.07-4.204-4.181-3.979c-3.479,0.251-6.995-0.043-10.488,0.093c-2.332,0.091-3.459-0.222-3.509-3.13
		c-0.172-9.906-0.328-9.903,9.693-9.903c12.992,0,25.988,0.184,38.974-0.111c3.918-0.09,4.615,1.126,4.511,4.7
		c-0.245,8.403-0.057,8.409-8.679,8.409C282.908,1090.791,282.908,1090.791,282.908,1100.386z M348.428,1129.835
		c-5.15,0.402-9.419,0.039-9.833-6.648c-0.093-1.51-1.375-2.654-3.503-2.47c-3.136,0.272-6.354,0.389-9.466,0
		c-5.426-0.679-9.257,0.521-9.569,6.747c-0.1,1.998-0.941,2.398-2.747,2.359c-4.98-0.108-9.964-0.037-15.511-0.037
		c2.942-7.548,5.705-14.766,8.566-21.944c3.549-8.908,7.208-17.772,10.757-26.681c0.956-2.397,2.303-3.782,5.142-3.417
		c1.963,0.252,4.041,0.35,5.971-0.006c6.706-1.235,10.386,1.145,12.805,7.823c5.382,14.856,11.623,29.402,17.573,44.225
		C355.075,1129.786,351.734,1129.576,348.428,1129.835z M462.426,1080.983c-3.779,15.14-7.066,30.401-10.58,45.608
		c-0.457,1.979-1.318,3.698-3.943,3.217c-0.806-0.147-1.661-0.022-2.494-0.022c-12.534,0.003-12.46-0.016-15.529-12.13
		c-1.607-6.343-3.524-12.606-5.301-18.906c-0.33,0.023-0.659,0.048-0.988,0.071c-2.891,9.268-5.834,18.519-8.604,27.821
		c-0.335,1.129-0.406,2.784-1.458,2.831c-5.304,0.234-10.734,0.773-15.882-0.138c-2.099-0.371-2.063-4.803-2.557-7.316
		c-2.731-13.903-6.501-27.549-9.84-41.298c-0.549-2.257-0.272-2.802,2.077-2.983c13.367-1.038,14.527-0.14,16.591,12.98
		c0.771,4.903,1.847,9.759,3.582,14.615c2.464-8.13,4.933-16.258,7.376-24.395c0.139-0.463-0.157-1.232,0.1-1.457
		c4.191-3.658,9.198-0.875,13.78-1.645c2.047-0.345,3.526,0.041,4.26,2.776c2.185,8.145,4.879,16.152,8.274,24.247
		c1.199-5.677,2.598-11.32,3.552-17.039c1.668-10.01,1.554-10.029,11.409-10.029c1.166,0,2.334,0.031,3.499-0.007
		C462.03,1077.71,463.264,1077.623,462.426,1080.983z M519.935,1129.813c-1.65-0.155-3.325-0.026-4.99-0.026
		c-0.998,0-2.015-0.122-2.992,0.021c-4.035,0.592-6.735-0.191-7.215-5.073c-0.274-2.796-2.273-4.322-5.608-4.033
		c-4.13,0.358-8.315,0.145-12.475,0.063c-2.333-0.045-3.723,0.516-3.823,3.258c-0.173,4.675-2.738,6.632-7.402,5.785
		c-0.806-0.146-1.661-0.021-2.493-0.021c-10.114,0-10.022,0.039-5.987-9.459c5.694-13.403,11.345-26.829,16.718-40.361
		c0.717-1.806,1.259-2.271,2.92-2.192c1.827,0.086,3.661,0.02,5.492,0.02c11.527,0,11.465,0.025,15.631,10.446
		c4.987,12.479,9.957,24.97,15.235,37.326C524.574,1129.38,523.52,1130.149,519.935,1129.813z M575.932,1123.221
		c-3.635,4.422-8.66,6.194-13.976,6.949c-10.829,1.537-21.273,0.934-29.194-8.063c-4.743-5.387-6.34-11.903-5.869-18.76
		c-0.975-13.857,8.222-24.308,22.236-25.775c8.949-0.938,16.8-0.221,24.324,4.984c3.021,2.089,3.991,5.324,6.129,7.854
		c0.976,1.155,1.026,3.583-2.129,3.454c-1.727-0.07-3.62,0.285-5.199,0.986c-4.461,1.981-7.257,0.301-10.216-3.174
		c-2.491-2.927-5.992-3.09-10.123-2.125c-5.983,1.398-7.077,5.857-7.869,10.324c-0.732,4.131-0.625,8.547,1.095,12.608
		c1.67,3.945,4.779,6.063,9.02,6.273c4.175,0.207,8.054-0.96,9.629-5.139c1.775-4.713,3.968-4.897,8.525-3.261
		C582.241,1113.925,582.768,1114.9,575.932,1123.221z M629.272,1129.821c-2.797,0.07-3.12-1.857-3.392-3.767
		c-0.632-4.452-3.163-5.954-7.444-5.308c-1.626,0.246-3.334,0.181-4.98,0.015c-5.54-0.562-10.524-0.446-11.111,6.962
		c-0.141,1.769-1.507,2.142-3.213,2.102c-4.818-0.113-9.643-0.039-15.078-0.039c6.514-16.2,12.896-32.059,19.266-47.924
		c1.079-2.69,2.226-4.692,5.937-4.188c3.918,0.531,7.97,0.23,11.954,0.075c2.182-0.085,3.226,0.841,3.991,2.754
		c6.517,16.292,13.096,32.559,19.838,49.282C639.504,1129.785,634.385,1129.693,629.272,1129.821z M704.929,1125.985
		c0.046,3.003-0.606,3.889-3.779,3.894c-13.64,0.024-13.611,0.131-21.379-11.511c-1.887-2.826-4.015-5.495-6.062-8.214
		c-2.02-2.685-4.077-5.341-6.85-8.965c0,9.108-0.112,17.073,0.062,25.032c0.06,2.738-0.601,3.61-3.504,3.646
		c-12.557,0.153-12.556,0.262-12.556-12.019c0-12.155,0.075-24.312-0.059-36.465c-0.029-2.692,0.524-3.635,3.474-3.675
		c13.135-0.177,13.056-0.233,20.304,10.307c4.069,5.916,8.443,11.622,13.277,18.238c0-9.043,0.102-17.119-0.059-25.189
		c-0.052-2.588,0.634-3.509,3.298-3.321c4.438,0.312,10.155-1.305,12.983,0.903c2.644,2.063,0.703,8.094,0.74,12.373
		C704.921,1102.674,704.749,1114.333,704.929,1125.985z M756.66,1129.864c-3.291,0.224-4.906-1.024-5.319-4.112
		c-0.561-4.203-2.934-5.631-7.022-5.016c-1.951,0.294-4.033,0.335-5.97-0.002c-5.776-1.006-9.66,0.71-10.4,6.935
		c-0.211,1.771-0.806,2.166-2.408,2.144c-5.139-0.072-10.278-0.027-15.761-0.027c6.571-16.607,12.848-32.501,19.155-48.382
		c0.967-2.436,2.333-4.047,5.497-3.697c3.45,0.382,7.028,0.466,10.453-0.013c3.91-0.546,5.543,1.469,6.752,4.513
		c6.259,15.738,12.512,31.479,18.91,47.58C765.801,1129.786,761.211,1129.555,756.66,1129.864z"/>
	<path fill-rule="evenodd" clip-rule="evenodd" d="M885.403,730.897c-16.298-26.233-32.489-52.534-48.851-78.729
		c-18.078-28.937-36.43-57.704-54.435-86.685c-21.984-35.382-43.63-70.974-65.613-106.356
		c-18.004-28.979-36.411-57.708-54.416-86.687c-21.982-35.381-43.648-70.961-65.612-106.354
		c-14.682-23.66-29.768-47.069-44.448-70.73c-18.654-30.063-37.005-60.315-55.629-90.398
		c-17.615-28.454-35.462-56.762-53.055-85.229c-1.775-2.872-2.362-1.736-3.451,0.136c-2.584,4.446-5.118,8.923-7.783,13.32
		c-13.922,22.969-27.92,45.892-41.813,68.879c-12.058,19.954-23.956,40.005-36.024,59.952
		c-13.736,22.703-27.642,45.302-41.362,68.015c-13.219,21.884-26.221,43.9-39.456,65.774
		c-10.741,17.753-21.797,35.315-32.514,53.082c-16.192,26.844-32.09,53.864-48.334,80.676
		c-19.426,32.059-39.301,63.846-58.581,95.992c-19.188,31.992-38.445,63.94-57.867,95.792
		c-20.086,32.942-39.652,66.201-59.687,99.174c-1.309,2.153-1.118,3.296-0.238,5.063c20.197,40.567,40.345,81.156,60.577,121.706
		c31.553,63.243,63.199,126.44,94.646,189.736c1.791,3.604,3.644,4.878,7.694,4.872c88.487-0.131,176.974-0.1,265.461-0.1
		c86.154,0,172.31-0.154,258.462,0.221c9.399,0.041,16.153-1.245,18.854-11.205c0.486-1.793,1.985-3.295,2.913-4.987
		c7.417-13.526,14.733-27.108,22.227-40.593c11.482-20.66,23.144-41.22,34.607-61.891c7.558-13.627,14.807-27.425,22.363-41.052
		c11.463-20.672,23.125-41.231,34.601-61.895c5.927-10.674,11.552-21.516,17.459-32.199c9.645-17.445,19.37-34.846,29.178-52.199
		C886.334,734.123,886.529,732.711,885.403,730.897z M869.36,734.814c-6.596,11.228-13.176,22.465-19.72,33.722
		c-7.837,13.481-15.66,26.972-23.44,40.485c-7.535,13.088-14.956,26.243-22.522,39.313c-7.894,13.634-15.894,27.207-23.86,40.797
		c-12.932,22.059-25.941,44.072-38.796,66.176c-12.769,21.955-25.425,43.975-38,66.039c-1.102,1.931-2.412,3.748-3.358,5.836
		c-1.075,2.375-3.002,3.769-6.452,3.762c-84.321-0.185-168.643-0.145-252.964-0.145c-83.989,0-167.977-0.045-251.965,0.139
		c-4.008,0.009-5.729-1.469-7.288-4.59c-31.645-63.383-63.298-126.761-95.025-190.1c-18.271-36.476-36.66-72.891-55.053-109.304
		c-1.304-2.581-1.423-4.308,0.33-7.144c11.663-18.875,22.854-38.041,34.288-57.058c13.173-21.912,26.487-43.741,39.646-65.661
		c10.84-18.059,21.525-36.21,32.313-54.301c11.363-19.058,22.733-38.111,34.16-57.131c11.678-19.439,23.443-38.825,35.141-58.252
		c7.96-13.219,15.855-26.478,23.809-39.701c10.609-17.638,21.248-35.258,31.871-52.889c12.613-20.935,25.268-41.845,37.821-62.816
		c11.811-19.729,23.492-39.535,35.27-59.284c12.352-20.713,24.721-41.417,37.14-62.091c10.353-17.233,20.819-34.398,31.175-51.628
		c11.264-18.743,22.528-37.485,33.604-56.339c1.48-2.52,2.289-1.802,3.302-0.163c11.075,17.914,22.053,35.886,33.146,53.787
		c9.496,15.322,19.128,30.561,28.662,45.859c13.446,21.57,26.852,43.166,40.284,64.744c11.311,18.166,22.643,36.317,33.951,54.483
		c13.35,21.443,26.67,42.906,40.028,64.344c10.89,17.478,21.832,34.923,32.723,52.401c13.441,21.572,26.848,43.167,40.28,64.746
		c10.203,16.392,20.424,32.772,30.635,49.159c14.124,22.662,28.215,45.345,42.378,67.98c12.037,19.238,24.235,38.375,36.223,57.643
		c13.339,21.438,26.484,42.994,39.78,64.458c9.998,16.141,20.035,32.259,30.251,48.262
		C870.261,732.133,870.302,733.211,869.36,734.814z"/>
	<path fill-rule="evenodd" clip-rule="evenodd" d="M142.926,1103.788c0-2.323-0.284-4.693,0.079-6.96
		c0.374-2.342-1.893-5.632,1.408-6.921c4.467-1.743,11.831,0.725,13.529,4.157c3.048,6.162,2.718,12.649,0.786,18.939
		c-1.231,4.01-10.789,6.708-14.857,4.747c-1.472-0.708-0.896-1.97-0.916-3.007C142.882,1111.093,142.926,1107.44,142.926,1103.788z"
		/>
	<path fill-rule="evenodd" clip-rule="evenodd" d="M499.67,1109.627c-3.999,0-7.795,0-11.979,0
		c1.886-6.024,3.691-11.79,5.756-18.381C495.678,1097.837,497.666,1103.705,499.67,1109.627z"/>
	<path fill-rule="evenodd" clip-rule="evenodd" d="M614.25,1091.456c1.953,5.776,3.513,10.624,5.243,15.409
		c0.789,2.182,0.346,3.023-2.054,2.945c-10.25-0.334-9.939,1.722-6.584-8.252C611.916,1098.4,612.977,1095.241,614.25,1091.456z"/>
	<path fill-rule="evenodd" clip-rule="evenodd" d="M745.956,1109.6c-1.137,0.078-1.947,0.176-2.759,0.182
		c-2.963,0.02-5.926,0.008-9.475,0.008c1.966-5.925,3.812-11.485,6.103-18.385C742.13,1098.247,744.008,1103.822,745.956,1109.6z"/>
	<path fill-rule="evenodd" clip-rule="evenodd" d="M334.047,1109.658c-4.297,0-8.071,0-12.253,0
		c1.946-5.818,3.811-11.392,6.1-18.232C330.176,1098.188,332.022,1103.656,334.047,1109.658z"/>
	<path fill-rule="evenodd" clip-rule="evenodd" d="M113.198,640.465c3.528,13.319,7.286,24.988,12.621,36.161
		c5.174,10.836,12.46,20.083,20.37,28.872c8.874,9.859,11.771,21.189,8.807,33.84c-2.287,9.758,2.336,17.3,6.587,25.681
		c1.959-8.095,2.309-15.875,3.489-23.521c1.721-11.153,0.597-22.365,1.416-33.539c0.461-6.291,0.524-13.483-5.021-19.633
		c-6.179-6.853-9.801-15.765-11.481-25.102c-0.281-1.564-0.522-2.595-2.115-3.438c-10.049-5.32-14.412-14.453-14.817-25.149
		c-0.852-22.449,8-41.533,21.769-58.729c1.027-1.282,1.911-1.006,2.904-0.984c1.302,0.027,2.064,0.937,2.167,2.243
		c0.078,0.994,0.13,2.01,0.015,2.996c-1.987,16.943,2.925,33.031,5.68,49.446c1.682,10.019,1.192,20.39-7.226,28.253
		c-1.027,0.958-1.824,2.007-1.364,3.467c2.45,7.778,4.038,15.909,9.84,22.259c1.528,1.672,3.75,2.361,4.875,5.499
		c10.397-20.138,20.218-39.1,24.31-60.511c2.022-10.58,2.868-20.937-0.072-31.434c-1.46-5.211-3.646-10.264-7.387-13.908
		c-8.349-8.133-12.999-18.038-13.324-29.242c-0.239-8.237,2.032-16.543,5.327-24.375c4.815-11.45,11.456-21.879,17.63-32.579
		c1.352-2.343,2.602-4.846,3.296-7.438c0.572-2.133,2.215-1.73,3.408-2.062c1.719-0.479,1.706,1.408,1.94,2.319
		c3.439,13.396,7.708,26.512,9.326,40.439c1.832,15.758-0.316,30.345-7.582,44.284c-1.034,1.985-2.101,4.217-3.778,5.545
		c-3.397,2.69-2.969,5.691-1.917,9.166c1.531,5.059,2.848,10.182,4.393,15.769c2.121-4.962,4.008-9.499,5.99-13.995
		c5.341-12.112,11.898-23.559,20.106-33.921c3.047-3.848,4.032-8.093,4.434-12.464c1.247-13.54,1.982-27.201,0.828-40.713
		c-0.64-7.485,0.552-15.162-1.756-22.479c-1.345-4.262-3.116-8.389-4.485-12.644c-6.677-20.763-1.721-38.795,12.142-55.267
		c11.878-14.113,26.862-24.888,39.455-38.195c3.168-3.349,6.085-6.875,8.844-10.529c0.918-1.218,1.271-1.662,2.936-1.162
		c1.53,0.46,1.915,0.841,2.217,2.433c1.242,6.519,0.829,12.907,0.203,19.495c-0.71,7.481-1.666,14.851-3.271,22.176
		c-3.661,16.711-10.55,32.018-20.432,45.899c-7.556,10.611-16.43,20.047-27.321,27.402c-1.688,1.141-1.317,2.919-1.243,4.526
		c0.55,11.911,1.041,23.813,1.1,35.748c0.042,8.29-2.062,16.449-0.958,24.72c6.874-1.786,10.242-6.605,10.953-13.461
		c1.18-11.37,2.519-22.845,8.607-32.94c2.991-4.96,7.066-9.008,12.214-11.801c8.617-4.675,17.945-8.034,25.872-13.992
		c0.509-0.383,1.062-0.737,1.646-0.981c1.685-0.703,1.74-3.855,5.096-2.363c3.644,1.62,1.558,4.073,1.3,5.608
		c-3.684,21.937-8.648,43.455-24.889,60.161c-5.639,5.801-12.708,9.453-20.79,10.44c-3.652,0.446-5.751,3.019-8.233,4.854
		c-9.838,7.272-17.626,16.596-24.628,26.541c-14.083,20.003-23.856,42.113-31.475,65.25c-1.151,3.496-2.172,7.037-3.441,10.489
		c-0.793,2.156-0.449,3.118,2.013,2.964c8.123-0.51,14.822-4.11,20.595-9.584c2.218-2.103,1.501-5.362,1.774-7.862
		c1.629-14.897,10.242-25.037,21.513-33.576c13.191-9.994,27.527-18.512,39.365-30.235c3.104-3.075,5.632-6.736,8.368-10.173
		c1.033-1.298,2.229-2.254,3.754-1.181c1.023,0.72,2.004,1.421,1.386,3.46c-6.274,20.674-10.581,41.993-20.795,61.347
		c-9.956,18.863-24.717,25.826-45.985,21.899c-1.035-0.19-2.291-0.595-3.229,0.46c-8.844,9.93-20.505,14.539-33.061,17.37
		c-1.393,0.314-2.364,0.601-3.096,1.929c-7.108,12.886-12.554,26.114-12.092,41.348c0.478,15.739,0.106,31.505,0.106,48.342
		c5.699-10.212,12.464-18.35,18.797-26.795c0.848-1.13,1.547-2.031,0.952-3.499c-4.766-11.761-0.1-22.032,6.102-31.373
		c8.179-12.319,19.784-19.304,35.007-21.131c12.804-1.536,26.073-2.792,36.854-11.612c1.777-1.453,3.433-3.018,5.111-4.553
		c1.474-1.348,2.511-1.999,4.697-0.838c2.414,1.281,0.486,2.806,0.308,3.432c-4.837,16.997-11.978,32.821-23.17,46.77
		c-8.988,11.199-19.704,19.743-33.375,24.227c-6.763,2.218-13.634,4.12-20.947,1.871c-5.497-1.689-6.895,3.69-9.217,6.532
		c-9.011,11.028-16.692,22.927-19.447,37.226c-2.08,10.792-0.966,21.532,1.815,32.081c0.765,2.898,0.771,4.284-2.73,5.25
		c-8.546,2.355-16.742,3.143-25.119-0.831c-3.195-1.517-3.339-3.345-2.463-5.961c3.218-9.615,5.165-19.376,4.906-29.62
		c-0.263-10.406-4.778-19.283-9.227-28.206c-1.054-2.112-3.809-2.237-6.039-2.516c-15.283-1.909-26.331-9.88-33.853-23.189
		c-5.771-10.213-8.2-21.128-9.112-32.798C97.249,675.402,102.634,658.096,113.198,640.465z"/>
	<path fill-rule="evenodd" clip-rule="evenodd" d="M321.829,651.54c9.314,4.173,18.42,7.08,27.921,8.762
		c11.725,2.074,23.237,1.568,34.82-1.325c10.794-2.695,21.371-6.322,32.818-6.283c9.931,0.033,19.401,1.847,28.701,4.833
		c19.245,6.178,38.416,5.697,57.606-0.067c14.582-4.381,29.117-9.043,44.615-8.577c3.42,0.103,6.829,0.627,10.238,0.989
		c1.581,0.17,2.441,1.159,2.293,2.693c-0.433,4.485,1.148,8.751,1.133,13.246c-0.059,17.681,1.606,35.308,2.093,52.986
		c0.343,12.49,1.614,24.972,1.95,37.5c0.108,4.045-1.709,4.934-4.797,5.541c-12.756,2.512-24.808-0.291-36.504-5.063
		c-11.777-4.806-23.594-9.804-36.343-10.77c-13.658-1.035-26.883,2.213-38.803,8.843c-6.685,3.718-12.086,3.288-18.641,0.126
		c-11.795-5.688-24.399-8.881-37.624-8.074c-11.364,0.693-21.95,4.773-32.562,8.547c-12.923,4.595-26.113,7.605-39.938,7.451
		c-2.802-0.031-4.024-0.316-3.997-3.672c0.147-17.855,1.838-35.64,2.334-53.485c0.301-10.812,1.375-21.673,1.61-32.511
		C320.909,666.13,322.597,659.186,321.829,651.54z"/>
	<path fill-rule="evenodd" clip-rule="evenodd" d="M638.034,602.459c-0.641-5.412-2.801-9.225-8.006-10.991
		c8.683-3.577,13.412,4.173,11.536,10.635c-0.723,2.488,0.254,3.244,1.481,4.406c5.368,5.076,10.254,10.54,12.516,17.733
		c1.479,4.705,2.995,9.452,1.414,14.595c-0.687,2.23-0.105,4.154,2.673,5.492c5.759,2.772,11.278,6.099,17.594,7.436
		c2.389,0.506,4.346,0.73,2.906-3.517c-3.544-10.449-6.44-21.121-10.251-31.5c-4.473-12.186-9.963-23.891-15.96-35.393
		c-2.91-5.58-6.59-10.644-10.194-15.708c-6.921-9.729-15.813-17.534-25.717-24.206c-1.491-1.004-2.037-0.146-2.874,0.636
		c-8.646,8.082-16.473,6.79-25.605,1.5c-3.345-1.937-7.153-4.097-8.844-8.214c-0.497-1.211-1.208-1.214-2.598-0.452
		c-3.61,1.984-6.634,0.335-5.878-3.469c0.613-3.092-1.504-1.429-2.091-1.754c-3.186-1.762-5.324-3.774-2.985-7.554
		c1.077-1.741,1.021-3.458,0.271-5.147c-1.42-3.195,0.009-5.594,1.871-8.382c0.785,2.208,1.148,4.099,2.434,5.62
		c0.952,1.128,1.716,1.492,3.195,0.682c1.921-1.053,0.385-1.789,0.049-2.677c-1.412-3.729-3.196-7.353,0.766-10.87
		c1.921-1.705,3.857-1.973,5.876-1.115c2.201,0.936,4.746,2.006,4.24,5.223c-0.468,2.973,1.072,5.323,2.143,7.849
		c0.805,1.9,2.001,0.982,3.083,0.506c1.411-0.623,1.666-1.165,0.624-2.811c-2.994-4.732,0.978-11.718,6.993-12.001
		c2.659-0.126,7.228-2.32,7.242,3.698c0.006,2.351,2.939,0.113,3.344,2.321c1.595-3.319-0.437-6.083-0.294-8.991
		c6.145,1.931,8.481,6.014,5.497,11.105c-1.048,1.79-0.766,2.021,0.172,3.023c5.798,6.188,7.362,13.602,5.613,21.633
		c-0.448,2.059-0.07,3.155,1.266,4.199c3.045,2.38,6.174,4.651,9.776,7.344c1.334-10.349,2.351-20.224,1.095-30.144
		c-0.226-1.777-0.598-3.581-0.499-5.347c0.442-7.96-1.728-15.794-1.049-23.756c0.144-1.685-0.432-2.879-2.287-3.219
		c-13.643-2.502-21.026-11.43-24.75-24.125c-0.463-1.577-0.639-3.336-3.006-3.476c-2.086-0.123-2.653-2.081-3.63-3.572
		c-0.949-1.452,0.624-2.042,0.808-3.098c0.188-1.077,1.104-0.533,1.932-0.248c3.406,1.17,3.428,1.11,5.659-2.019
		c-2.731-1.291-6.691-1.42-6.639-5.625c0.032-2.525,1.364-5.249,3.876-5.626c3.548-0.532,7.326-0.368,10.884,0.227
		c3.942,0.659,7.169,2.978,9.133,6.617c0.732,1.358,1.231,1.485,2.869,1.136c1.927-0.412,1.198-0.881,1.339-2.218
		c0.777-7.358,12.395-12.746,18.855-8.991c1.815,1.054,2.727,2.309,2.174,4.603c-0.269,1.115-1.346,3.044,1.267,3.425
		c2.511,0.366,2.709-1.061,2.558-2.935c-0.025-0.302,0.102-0.699,0.302-0.923c1.088-1.211-2.257-3.98,1.016-3.99
		c2.509-0.007,4.345,2.102,4.618,4.861c0.227,2.294,0.502,4.982-1.312,6.533c-2.838,2.425-2.717,5.357-2.684,8.521
		c0.09,8.471-2.729,16.106-7.062,23.233c-0.76,1.25-1.811,2.765-3.06,3.198c-5.629,1.951-6.14,6.11-5.941,11.23
		c0.322,8.319,0.049,16.66,0.095,24.992c0.108,19.491,4.734,37.669,15.402,54.205c6.582,10.204,12.166,20.985,17.277,32.627
		c3.423-4.026,2.389-8.94,4.239-12.891c1.225-2.614,0.748-5.705,1.941-8.45c0.649-1.493-0.169-2.604-1.786-3.852
		c-10.924-8.431-12.609-19.957-10.363-32.712c0.444-2.521,1.09-4.865-1.471-7.455c-2.902-2.937-3.384-7.046,1.393-9.941
		c1.801,5.751,5.76,6.644,11.269,3.97c-3.594,0.178-5.209-1.944-6.829-4.521c-1.518-2.413-1.715-4.774-0.302-6.837
		c1.795-2.623,4.702-3.607,7.85-2.624c6.402,2.001,14.813,12.657,14.947,19.453c0.037,1.922,0.748,2.185,1.936,2.215
		c0.869,0.021,1.525,1.316,2.868-0.478c4.337-5.794,14.536-5.965,19.957-0.615c1.658,1.636,3.121,3.325,1.462,5.701
		c-1.193,1.709,0.288,2.712,1.002,3.633c1.347,1.737,1.671-0.604,2.517-0.962c3.144-1.328,6.323-3.953,8.727,1.09
		c1.534,3.219,0.136,7.474-4.084,8.529c-5.904,1.476-8.783,5.318-11.646,10.176c-6.263,10.634-15.575,16.564-28.325,15.966
		c-4.346-0.204-4.289,3.401-4.912,5.891c-4.419,17.634-1.571,34.72,3.714,51.77c4.489,14.483,10.727,28.096,18.199,41.207
		c1.575,2.765,2.692,4.938,5.5,0.403c4.253-6.87,7.902-13.97,11.118-21.347c0.771-1.771,0.143-2.785-1.08-3.844
		c-8.34-7.216-10.92-16.367-9.688-27.125c0.406-3.553,0.377-7.214,1.458-10.606c0.643-2.014-0.853-2.377-1.597-3.013
		c-1.617-1.382-1.748-2.991-1.753-4.875c-0.004-1.472,0.275-2.801,1.617-3.341c1.677-0.674,3.42,0.499,3.671,1.767
		c1.419,7.191,4.184,1.177,6.349,0.771c-6.617-5.023-6.824-10.044-0.844-13.068c2.436-1.231,4.174-0.095,6.021,0.507
		c8.599,2.802,13.476,10.411,12.396,19.219c-0.193,1.571,0.589,2.258,1.618,2.603c1.143,0.384,2.037,0.155,2.295-1.587
		c0.621-4.206,3.922-5.086,7.51-5.309c8.983-0.558,12.387,2.061,15.585,10.766c0.724,1.971,2.184,3.909,3.137,6.004
		c1.993-2.573,3.955-5.105,5.994-7.735c4.481,8.298,3.697,10.473-4.983,14.202c-1.89,0.813-3.457,2.498-3.818,4
		c-0.963,4.002-3.982,6.229-6.298,9.139c-6.946,8.73-16.001,12.868-26.988,12.521c-4.315-0.135-6.37,1.022-7.5,5.489
		c-1.687,6.662-5.945,12.327-8.524,18.741c-3.301,8.206-4.662,16.329-3.517,25.097c1.067,8.174,0.019,16.463,1.197,24.71
		c1.078,7.552,1.546,15.196,3.12,22.689c0.182,0.865-0.442,2.073,1.083,2.328c1.13,0.188,1.986-0.268,2.553-1.162
		c2.17-3.43,4.24-6.923,6.449-10.328c1.44-2.22,1.318-4.122-0.301-6.266c-9.409-12.462-6.335-24.875,0.698-36.958
		c1.581-2.716,3.024-4.614,0.874-7.626c-0.955-1.337-0.863-3.568,1.02-4.288c2.707-1.036,1.7,1.912,2.012,2.766
		c1.299,3.563,3.315,2.293,5.477,1.325c-2.9-5.492-2.456-8.917,1.41-11.131c3.833-2.192,11.017,0.837,13.758,5.729
		c2.368,4.227,2.419,8.876,1.821,13.364c-0.388,2.91,0.561,4.26,2.805,5.368c0.872-3.71,2.262-5.159,6.851-4.224
		c6.188,1.261,11.137,3.757,15.657,8.011c3.763,3.539,3.03,7.139,0.298,10.128c-1.689,1.848-2.768,3.536-2.787,6.39
		c4.409-0.841,6.18-4.934,9.05-7.871c1.447,2.176,3.288,4.016,1.479,7.286c-1.734,3.137-4.049,5.021-7.368,4.404
		c-4.415-0.82-7.105,1.852-9.387,4.384c-9.058,10.057-19.918,14.057-33.024,10.32c-2.846-0.812-3.796-0.231-5.478,1.795
		c-6.751,8.134-9.854,17.684-9.743,27.896c0.09,8.219,1.118,16.535,3.235,24.597c1.659,6.314-0.269,8.849-6.556,10.206
		c-5.782,1.248-11.175,1.046-16.585-1.35c-3.337-1.478-4.89-4.021-4.223-7.378c3.413-17.182,1.765-34.057-4.309-50.224
		c-2.986-7.951-8.233-15.096-14.593-21.06c-1.146-1.074-2.534-1.261-4.16,0.292c-10.933,10.438-26.791,8.314-38.113,2.166
		c-2.308-1.254-4.829-4.745-7.961-0.675c-0.356,0.464-3.024,1.021-3.833-0.753c-0.797-1.748,0.924-2.178,2.042-2.661
		c1.852-0.802,2.234-1.604,1.296-3.681c-1.366-3.021-2.005-0.201-2.917,0.077c-3.806,1.162-7.493,1.286-9.667-2.658
		c-1.939-3.518-1.021-6.538,1.925-9.609c5.388-5.618,11.854-6.95,19.181-6.622c4.928,0.221,5.373-0.612,3.015-4.966
		c-5.848-10.794,2.543-21.134,12.289-23.892c3.71-1.049,6.324,1.94,6.622,5.947c0.162,2.18,2.633,0.496,3.962,1.213
		c1.979,1.068,1.149-1.044,1.089-1.448c-0.685-4.643-3.123-7.935-7.744-9.378c1.967-2.668,4.232-1.402,6.141-0.291
		c3.197,1.864,4.288,5.292,3.504,8.483c-0.796,3.238,0.618,4.63,2.624,6.429c7.755,6.953,13.747,15.313,13.262,26.002
		c-0.294,6.47-0.391,11.274,5.061,16.184c5.373,4.838,9.357,11.372,12.77,17.848c2.139-0.6,1.408-2.025,1.412-3.011
		c0.089-17.933-1.032-35.759-3.813-53.515c-0.979-6.249-2.103-12.337-4.027-18.376c-2.422-7.6-6.742-12.693-14.506-15.419
		c-6.483-2.274-12.627-5.614-18.724-8.855c-2.524-1.343-4.29-0.897-5.365,1.204c-3.249,6.356-9.579,7.783-15.389,8.671
		c-8.788,1.343-17.647-0.035-25.089-5.442c-2.896-2.104-4.85-0.108-7.05,0.341c-3.424,0.7-5.978,0.12-8.479-3.028
		c2.571-0.92,4.991-0.9,6.954-2.489c1.858-1.504,0.906-3.154,0.371-4.13c-0.852-1.555-1.6,0.356-2.23,0.822
		c-2.234,1.651-4.969,1.373-7.364,1.567c-2.597,0.211-4.74-1.64-5.791-4.395c-1.058-2.775-0.378-5.154,1.375-7.265
		c6.348-7.637,14.262-11.826,24.45-10.731c1.534,0.165,2.99,0.84,4.191-0.93c1.421-2.096-0.688-2.588-1.472-3.564
		c-6.902-8.605-5.909-21.652,7.75-24.932c3.572-0.858,6.708,0.111,7.843,2.874C633.586,601.071,634.841,602.329,638.034,602.459z"/>
	<path fill-rule="evenodd" clip-rule="evenodd" d="M200.919,877.687c5.792-8.084,10.929-15.277,16.088-22.454
		c18.776-26.113,37.812-52.048,56.117-78.488c3.446-4.978,6.154-4.781,10.82-3.483c10.951,3.044,22.184,4.429,33.494,5.75
		c20.51,2.397,39.54-2.537,58.327-9.625c7.349-2.771,15.098-4.56,22.732-4.277c8.259,0.305,16.242,3.1,24.054,6.453
		c6.506,2.794,8.691,6.143,8.555,13.368c-0.532,28.148-0.312,56.313-0.107,84.469c0.028,3.911-1.102,4.881-4.692,4.452
		c-11.823-1.411-23.635-3.249-35.505-3.827c-9.724-0.475-19.511-0.261-29.313,0.344c-21.693,1.341-41.79,9.628-62.889,13.324
		c-11.442,2.003-23.132,1.189-34.72,1.098c-12.778-0.102-25.371-1.989-38.013-3.743
		C217.977,879.951,210.222,877.868,200.919,877.687z"/>
	<path fill-rule="evenodd" clip-rule="evenodd" d="M448.887,824.709c0-14.324,0.173-28.652-0.105-42.972
		c-0.084-4.311,0.986-6.644,5.117-8.606c8.506-4.045,17.217-7.624,26.545-8.088c8.716-0.433,17.214,2.16,25.441,5.262
		c15.567,5.867,31.572,10.168,48.325,9.399c15.066-0.691,30.007-3.011,44.506-7.377c2.584-0.778,3.646-0.196,5.039,1.787
		c16.702,23.772,33.454,47.51,50.265,71.206c7.017,9.891,14.121,19.724,21.384,29.435c1.634,2.183,1.137,2.744-1.112,3.053
		c-15.621,2.141-31.124,4.956-46.899,6.231c-12.453,1.007-24.857,0.858-37.249,0.599c-10.98-0.23-21.67-3.297-32.247-6.295
		c-12.441-3.525-24.927-6.466-37.904-7.749c-9.962-0.985-19.908-1.169-29.742-0.541c-11.513,0.733-23.134,1.251-34.512,3.709
		c-5.883,1.271-6.851,0.358-6.851-5.578C448.887,853.691,448.887,839.2,448.887,824.709z"/>
	<path fill-rule="evenodd" clip-rule="evenodd" d="M441.253,993.803c-43.808,0-87.616-0.073-131.423,0.114
		c-4.298,0.019-5.245-1.161-5.001-5.2c0.855-14.152,1.466-28.334,2.398-42.465c0.502-7.632-0.453-15.431,1.574-23.015
		c0.539-2.014,0.878-2.981,3.159-3.515c13.311-3.11,26.622-5.549,40.396-6.079c19.129-0.736,36.981,3.212,54.273,11.066
		c8.873,4.031,17.483,8.686,27.053,11.19c8.487,2.221,15.97-0.278,23.337-3.735c11.588-5.436,22.824-11.672,35.458-14.573
		c5.528-1.27,11.05-2.373,16.732-2.84c7.681-0.63,15.32-0.452,22.987,0.043c13.794,0.889,27.264,3.57,40.603,7.045
		c2.475,0.643,2.07,2.631,2.068,4.416c-0.012,9.426,0.777,18.837,1.246,28.228c0.574,11.496,0.836,23.026,1.81,34.503
		c0.322,3.797-0.725,4.935-4.748,4.92C529.202,993.741,485.227,993.803,441.253,993.803z"/>
	<path fill-rule="evenodd" clip-rule="evenodd" d="M368.333,528.899c12.86,7.926,26.608,13.512,40.876,18.095
		c16.133,5.181,32.562,9.245,49.243,11.585c12.269,1.723,24.709,2.839,37.167,3.558c11.104,0.64,22.171,0.411,33.248,0.657
		c3.404,0.075,6.824-0.618,10.24-0.93c2.366-0.218,3.319,0.315,2.317,3.054c-3.854,10.538-9.315,20.227-18.798,26.289
		c-5.06,3.235-11.736,4.126-17.805,5.56c-11.124,2.631-22.355,4.398-33.897,4.176c-10.53-0.202-20.392-3.219-30.415-5.789
		c-10.103-2.592-20.175-4.313-30.844-2.56c-6.427,1.056-12.208-3.105-16.773-7.396c-14.084-13.241-21.986-29.717-23.962-48.969
		C368.7,533.981,367.098,531.932,368.333,528.899z"/>
	<path fill-rule="evenodd" clip-rule="evenodd" d="M322.903,632.997c0.521-2.735-1.618-7.047,0.88-8.979
		c2.453-1.898,5.596,1.606,8.426,2.654c13.841,5.124,28.104,7.204,42.757,6.106c9.028-0.677,17.52-4.134,26.311-6.108
		c12.559-2.822,24.846-2.71,37.183,1.043c10.967,3.338,22.09,6.605,33.56,6.949c10.207,0.307,20.313-1.677,30.24-4.482
		c10.337-2.922,20.389-6.79,30.92-9.06c7.988-1.721,15.952-0.835,23.909-0.097c1.679,0.156,2.851,1.362,2.895,3.733
		c0.093,5.069-0.879,10.175,0.765,15.25c0.799,2.468-1.769,2.003-2.96,1.781c-17.752-3.315-34.604,1.096-51.276,6.204
		c-11.257,3.447-22.537,6.137-34.384,5.857c-9.979-0.235-19.433-2.936-28.879-5.868c-8.239-2.559-16.897-4.005-25.377-3.875
		c-10.618,0.162-21.1,2.734-31.358,5.78c-21.124,6.274-41.375,3.312-61.08-5.773c-2.016-0.93-2.675-2.074-2.558-4.128
		C322.999,637.826,322.903,635.654,322.903,632.997z"/>
	<path fill-rule="evenodd" clip-rule="evenodd" d="M558.874,604.835c0,7.969,0.022,7.662-7.803,7.087
		c-13.206-0.971-25.815,2.228-38.193,6.441c-14.404,4.902-28.969,8.514-44.418,7.562c-9.004-0.555-17.412-3.321-25.896-5.851
		c-8.464-2.521-17.144-4.213-25.854-4.019c-8.355,0.186-16.766,1.658-24.804,4.305c-10.336,3.404-20.903,5.401-31.75,4.405
		c-11.943-1.097-23.391-4.302-34.118-9.858c-1.314-0.681-2.257-1.323-2.122-2.866c0.372-4.214-1.86-9.577,1.427-12.321
		c2.537-2.116,6.49,1.781,9.874,2.777c7.443,2.19,14.986,3.719,22.79,4.504c14.902,1.5,28.753-2.489,42.715-6.514
		c13.013-3.752,26.087-3.505,38.888,0.765c13.839,4.615,27.964,6.6,42.453,5.545c12.771-0.93,25.159-4.009,37.354-7.829
		c8.84-2.77,17.967-4.16,27.122-4.911c3.069-0.251,6.423,0.945,9.714,0.801c1.32-0.059,1.269,0.873,1.726,1.782
		C559.423,599.517,558.579,602.501,558.874,604.835z"/>
	<path fill-rule="evenodd" clip-rule="evenodd" d="M426.255,884.358c-3.942,5.563-7.744,10.568-11.135,15.838
		c-2.077,3.229-4.532,3.432-7.789,2.46c-18.376-5.483-37.124-8.453-56.343-7.819c-11.397,0.376-22.514,2.811-33.6,5.214
		c-12.638,2.741-25.208,5.553-38.134,6.967c-9.958,1.091-19.892,1.16-29.729,0.586c-13.749-0.801-27.533-2.191-40.996-5.523
		c-0.471-0.116-0.954-0.199-1.436-0.26c-9.42-1.188-9.188-1.189-9.292-10.566c-0.04-3.629,1.694-3.957,4.146-3.389
		c12.181,2.822,24.708,3.406,36.951,5.841c3.493,0.695,7.202,0.726,10.735,0.896c11.556,0.557,23.116,2.04,34.706,1.178
		c16.006-1.189,31.743-4.188,46.963-9.173c19.47-6.377,39.455-7.819,59.587-6.581C402.508,880.74,414.246,881.556,426.255,884.358z"
		/>
	<path fill-rule="evenodd" clip-rule="evenodd" d="M453.163,884.188c16.6-2.489,32.319-4.181,48.223-4.45
		c17.784-0.301,34.903,3.137,51.774,8.166c11.813,3.522,23.692,6.139,36.057,7.13c6.938,0.556,13.869,1.052,20.746,0.664
		c13.03-0.734,26.035-1.811,39.004-3.658c9.316-1.327,18.654-2.496,27.918-4.201c1.826-0.336,3.388-0.057,2.98,2.465
		c-0.052,0.325-0.013,0.666-0.005,0.998c0.213,8.896,0.169,8.688-8.66,10.579c-11.95,2.56-24.022,3.865-36.162,5.153
		c-10.294,1.093-20.572,1.192-30.733,0.55c-14.007-0.885-27.798-3.884-41.496-7.222c-16.552-4.034-33.393-6.87-50.506-5.444
		c-14.5,1.208-28.714,4.446-42.775,8.153c-1.822,0.48-2.067,0.453-3.142-1.108C462.37,896.125,457.957,890.562,453.163,884.188z"/>
	<path fill-rule="evenodd" clip-rule="evenodd" d="M363.717,531.857c3.654,24.725,11.707,46.78,33.401,61.752
		C369.544,590.082,348.388,555.132,363.717,531.857z"/>
	<path fill-rule="evenodd" clip-rule="evenodd" d="M450.844,912.914c-0.082,0.919-0.975,0.659-1.421,1.005
		c-5.29,4.1-15.481,4.331-20.574,0.313c-1.392-1.099-2.752-2.061-0.739-4.305c3.111-3.468,5.561-7.521,8.446-11.205
		c0.888-1.135,2.098-3.222,3.835-0.866c3.446,4.669,6.777,9.422,10.14,14.152C450.709,912.258,450.747,912.607,450.844,912.914z"/>
	<path fill-rule="evenodd" clip-rule="evenodd" d="M707.865,521.527c-0.908,2.565-1.322,4.944-4.799,5.856
		c-7.395,1.94-7.314,2.254-11.201-4.477c-0.161-0.279-0.161-0.714-0.384-0.887c-3.991-3.11-4.046-6.188,0.027-9.257
		c4.022-3.031,10.393-2.363,13.381,1.354C706.657,516.314,707.862,518.707,707.865,521.527z"/>
	<path fill-rule="evenodd" clip-rule="evenodd" d="M612.058,620.188c-4.925,0.487-9.163,1.421-13.476,3.09
		c-3.021,1.169-5.725-1.785-6.614-4.816c-1.38-4.702,2.032-11.589,5.754-12.562c4.976-1.3,9.376,2.102,11.284,8.094
		C609.653,616.025,609.711,618.537,612.058,620.188z"/>
	<path fill-rule="evenodd" clip-rule="evenodd" d="M623.333,703.223c-2.693-0.381-5.218-3.124-6.112-6.795
		c-1.011-4.147,1.831-7.412,4.985-9.117c2.501-1.353,6.072-1.325,8.439,1.734c0.74,0.958,1.332,1.774,1.24,3.04
		c-0.096,1.315,0.193,2.688-0.067,3.957c-0.465,2.269,2.708,4.874,0.465,6.296C630.371,703.55,627.297,702.929,623.333,703.223z"/>
	<path fill-rule="evenodd" clip-rule="evenodd" d="M741.253,589.855c7.74-0.048,11.791,5.356,9.699,12.215
		c-1.623,5.317-6.254,1.657-9.122,3.582c-1.858,1.246-2.686-1.69-2.901-3.295c-0.243-1.811-1.959-2.497-2.421-4.149
		c-0.479-1.714-3.752-2.168-1.781-5.193C736.428,590.402,738.536,589.784,741.253,589.855z"/>
	<path fill-rule="evenodd" clip-rule="evenodd" d="M769.846,692.538c-0.116,4.913-2.395,7.483-6.473,7.302
		c-6.276-0.28-9.364-3.396-8.376-9.548c0.615-3.825,4.188-4.531,7.686-4.453C767.392,685.943,769.947,688.321,769.846,692.538z"/>
	<path fill-rule="evenodd" clip-rule="evenodd" d="M620.882,419.942c5.286-0.244,7.73,2.809,8.748,6.58
		c0.871,3.229-3.601,3.741-4.683,6.511c-0.871,2.227-2.259-0.24-3.369-0.865c-0.834-0.47-1.687-1.121-2.584-1.224
		c-3.982-0.453-5.909-2.465-5.097-6.512C614.744,420.219,618.657,420.874,620.882,419.942z"/>
	<path fill-rule="evenodd" clip-rule="evenodd" d="M767.186,617.685c-1.117-6.084-4.92-9.783-10.37-11.768
		c-3.994-1.454-1.195-3.625-1.109-5.703c0.128-3.076,1.95-2.696,3.652-2.13C767.623,600.832,771.978,610.807,767.186,617.685z"/>
	<path fill-rule="evenodd" clip-rule="evenodd" d="M712.019,518.163c9.665,2.332,13.884,9.648,10.737,19.228
		c-1.753-5.381-5.535-8.186-10.268-9.41c-2.505-0.648-1.938-2.539-1.476-3.274C712.295,522.665,711.542,520.507,712.019,518.163z"/>
	<path fill-rule="evenodd" clip-rule="evenodd" d="M783.845,712.293c-3.113-3.938-6.776-6.821-10.692-9.386
		c-1.2-0.786-3.377-1.206-1.723-2.953c1.417-1.497,1.454-5.344,5.182-3.792c4.337,1.804,7.155,4.731,7.229,9.696
		C783.872,708.003,783.845,710.147,783.845,712.293z"/>
	<path fill-rule="evenodd" clip-rule="evenodd" d="M620.339,591.854c-5.022,3.271-9.296,5.806-10.571,11.18
		c-0.27,1.137-1.265,2.664-2.884,1.269c-1.444-1.246-3.87-1.874-2.958-4.782c1.166-3.712,6.344-7.341,11.421-7.653
		C616.666,591.785,617.994,591.854,620.339,591.854z"/>
	<path fill-rule="evenodd" clip-rule="evenodd" d="M647.66,425.716c-4.361-1.25-8.076-1.633-11.083-0.507
		c-3.864,1.447-3.969-1.561-4.498-3.104c-0.977-2.854,1.933-3,3.554-3.14C640.556,418.542,644.154,420.991,647.66,425.716z"/>
	<path fill-rule="evenodd" clip-rule="evenodd" d="M645.292,675.177c-4.287,3.03-8.39,4.995-10.563,9.212
		c-1.409,2.735-2.521-0.117-3.693-0.562c-2.276-0.862-1.251-2.087-0.276-3.359C634.232,675.928,638.729,674.001,645.292,675.177z"/>
	<path fill-rule="evenodd" clip-rule="evenodd" d="M592.917,626.5c-2.71,1.125-3.252,5.743-7.105,4.566
		c-1.738-0.53-1.19-6.58,0.501-8.051C587.905,621.632,588.592,621.987,592.917,626.5z"/>
	<path fill-rule="evenodd" clip-rule="evenodd" d="M599.457,494.163c-3.862,1.281-6.788,2.195-8.862,4.53
		c-1.373,1.547-2.313,1.23-3.558-0.113c-1.642-1.771-0.432-2.858,0.866-3.688C591.288,492.726,594.856,491.875,599.457,494.163z"/>
	<path fill-rule="evenodd" clip-rule="evenodd" d="M618.899,705.426c-1.816,1.234-3.521,2.392-5.416,3.679
		c-1.343-2.812-0.833-5.788,0.923-6.886C616.22,701.084,617.259,704.258,618.899,705.426z"/>
	<path fill-rule="evenodd" clip-rule="evenodd" d="M609.375,424.044c-1.396,1.355,2.859,4.624-1.339,4.767
		c-1.054,0.036-2.983,1.004-3.11-1.169C604.758,424.775,607.428,424.827,609.375,424.044z"/>
	<path fill-rule="evenodd" clip-rule="evenodd" d="M684.939,513.928c-1.92-0.147-3.041-0.815-2.976-2.077
		c0.133-2.54,2.953-1.458,4.183-2.66c0.063-0.062,1.384,0.985,1.354,1.033C686.633,511.598,685.67,512.908,684.939,513.928z"/>
	<path fill-rule="evenodd" clip-rule="evenodd" d="M756.785,682.159c-2.465,3.076-4.606,4.984-6.484,0.137
		C752.247,680.99,754.393,681.517,756.785,682.159z"/>
	<path fill-rule="evenodd" clip-rule="evenodd" d="M726.237,590.267c2.143-0.188,3.527-3.813,5.923-1.452
		c1.293,1.273-0.708,1.823-1.257,2.521C728.911,593.868,727.852,590.365,726.237,590.267z"/>
	<path fill-rule="evenodd" clip-rule="evenodd" d="M557.839,583.76c-1.827-10.266-0.942-20.686-1.727-31.024
		c-0.958-12.632-1.51-25.331-2.075-38c-0.647-14.505-1.411-29.004-2.034-43.507c-0.552-12.848-1.4-25.675-1.969-38.512
		c-0.643-14.505-1.42-29.004-2.032-43.508c-0.541-12.849-1.382-25.675-1.971-38.512c-0.644-14.005-1.419-28.004-2.021-42.008
		c-0.56-13.014-1.409-26.009-1.975-39.011c-0.639-14.672-1.397-29.337-2.017-44.008c-0.236-5.583-0.894-10.391-4.59-14.955
		c-3.405-4.206-5.687-9.311-8.576-13.947c-14.039-22.534-28.127-45.035-42.175-67.562c-9.618-15.425-19.174-30.889-28.806-46.306
		c-5.408-8.658-10.913-17.257-16.783-26.526c-4.482,7.573-8.614,14.647-12.833,21.671c-13.581,22.604-27.179,45.196-40.799,67.776
		c-11.213,18.591-22.582,37.088-33.625,55.778c-2.826,4.784-7.296,9.19-7.732,14.743c-0.94,11.973-1.364,23.999-2.084,36.001
		c-0.759,12.662-1.283,25.342-1.956,38.012c-0.689,13-1.416,26.005-2.017,39.008c-0.6,13.01-1.312,26.009-1.986,39.012
		c-0.682,13.168-1.391,26.338-2.011,39.509c-0.62,13.174-1.33,26.34-1.994,39.511c-0.646,12.839-1.389,25.672-2.002,38.51
		c-0.614,12.842-1.613,25.68-1.954,38.508c-0.452,17.021-2.276,33.97-2.222,51.003c0.007,2.103-0.406,4.217-0.676,6.278
		c-0.342,2.613-2.056,6.08,1.941,8.257c14.872,8.103,30.918,9.93,47.385,8.695c3.906-0.293,8.339-0.748,12.14-3.385
		c-6.278-1.852-11.037-5.545-15.364-9.618c-8.952-8.427-14.826-18.435-16.604-31.009c-1.646-11.628,1.627-21.248,8.888-29.961
		c1.652-1.983,2.988-2.283,5.354-0.469c3.416,2.618,7.33,4.631,11.164,6.651c18.454,9.722,38.291,15.322,58.785,19.745
		c0-39.434-0.022-78.588,0.052-117.743c0.005-2.434-0.712-3.078-3.083-3.036c-7.829,0.14-15.666-0.08-23.493,0.122
		c-2.887,0.074-3.629-0.835-3.535-3.614c0.204-5.991,0.224-12.001-0.007-17.992c-0.111-2.912,0.868-3.587,3.625-3.523
		c7.661,0.18,15.333-0.078,22.993,0.134c2.928,0.081,3.562-0.902,3.508-3.64c-0.168-8.495,0.122-17.002-0.151-25.492
		c-0.109-3.418,1.038-4.138,4.172-4.004c5.655,0.241,11.343,0.303,16.99-0.019c3.451-0.195,4.077,1.074,3.992,4.181
		c-0.209,7.661,0.258,15.348-0.184,22.989c-0.292,5.067,1.612,6.244,6.265,6.004c6.813-0.353,13.661-0.003,20.491-0.138
		c2.437-0.049,3.535,0.385,3.429,3.207c-0.233,6.157-0.255,12.336,0.005,18.491c0.131,3.103-1.149,3.454-3.748,3.4
		c-7.329-0.153-14.67,0.135-21.992-0.137c-3.401-0.126-4.439,0.647-4.426,4.265c0.147,38.827,0.173,77.656-0.027,116.483
		c-0.021,4.09,1.885,5.019,4.99,5.296c16.886,1.51,33.759,3.003,50.749,3.148c9.339,0.079,18.597-1.954,27.927-0.953
		c-1.9,10.774-7.195,19.731-13.747,29.077c7.835-0.624,14.801-2.342,21.829-0.307C558.107,587.551,558.131,585.396,557.839,583.76z
		 M522.617,287.944c-0.735,0.49-0.764,1.04-0.711,1.627c0.457,5.063-1.584,9.136-4.919,12.723c-0.417,0.447-1.047,0.819-0.591,1.619
		c3.468,6.083-0.42,13.065,2.367,19.316c0.683,1.53,0.267,3.636,0.076,5.449c-0.267,2.545-0.701,5.909-2.677,6.847
		c-2.294,1.088-2.719-2.626-4.058-4.072c-9.905-10.702-21.969-17.539-36.154-20.469c-7.709-1.592-15.358-0.805-22.879,1.868
		c-8.901,3.164-17.904,1.708-26.828-0.249c-7.767-1.703-15.508-3.719-23.514-3.661c-6.389,0.048-12.509,1.239-17.422,5.95
		c-2.038,1.954-4.927,3.081-7.483,2.84c-5.319-0.5-8.116,2.819-11.253,5.962c-1.4,1.403-1.253,4.84-4.656,3.678
		c-3.947-1.348-1.1-3.852-1.074-5.961c0.09-7.566,2.021-14.672,5.071-21.507c3.661-8.203,9.482-12.717,19.046-12.124
		c7.623,0.474,10.168-4.265,7.192-11.262c-2.616-6.149-7.927-8.062-13.51-9.556c-7.942-2.126-9.475-4.859-7.869-12.724
		c2.181-10.683,8.178-19.559,13.37-28.686c10.748-18.892,20.943-37.941,26.764-59.03c0.318-1.153,0.848-2.249,1.353-3.563
		c4.857,3.802,6.347,8.913,6.563,14.33c0.325,8.113-0.486,16.158,3.538,23.944c1.645,3.183,1.211,8.026,0.301,11.768
		c-0.835,3.442-0.134,5.899,2.124,8.915c11.118-20.255,20.142-41.254,28.413-63.272c5.45,6.228,8.412,12.673,6.932,20.717
		c-0.349,1.894-0.893,3.982,0.471,5.692c4.587,5.757,3.984,12.152,2.197,18.577c-0.525,1.884-0.846,3.071,0.794,4.625
		c1.864,1.768,3.479,4.256,3.191,6.832c-0.75,6.726,0.894,12.995,3.244,19.056c1.591,4.107,1.018,7.799-1.091,11.117
		c-1.905,2.998-2.441,6.041-2.007,9.291c1.063,7.96-2.081,13.49-9.167,17.018c-1.081,0.538-1.972,1.456-3.193,2.384
		c26.333,12.228,50.642,3.623,75.101-6.317C530.298,275.789,529.908,283.08,522.617,287.944z"/>
	<path fill-rule="evenodd" clip-rule="evenodd" d="M419.547,221.974c3.132,3.985,1.417,6.985-0.46,10.326
		c-5.271,9.381-12.904,16.986-18.909,25.803c-5.17,7.59-4.56,11.945,2.446,17.208c-3.446,3.009-5.717,2.666-7.758-1.831
		c-2.402-5.29-6.921-8.436-12.693-9.581c-7.638-1.517-10.026-4.163-6.768-12.15c4.508-11.052,10.812-21.123,16.473-31.546
		c8.267-15.217,16.284-30.541,21.503-47.228c2.591,2.04,1.125,4.729,1.503,7.048c1.727,10.571-3.032,19.153-8.24,27.719
		c-3.245,5.337-5.848,11.061-8.837,16.558c-0.675,1.239-1.533,1.746,0.5,2.864c2.154,1.183,2.322,0.197,3.087-1.232
		c4.99-9.312,10.063-18.577,15.114-27.868c3.574,5.092,3.277,17.284-0.526,22.198c-3.475,4.49-6.98,8.956-10.406,13.484
		c-1.026,1.356-2.018,2.682-0.035,4.366c2.783,2.363,2.615-0.983,3.214-1.732C412.484,231.719,415.945,226.848,419.547,221.974z"/>
	<path fill-rule="evenodd" clip-rule="evenodd" d="M523.555,274.492c-5.805,2.274-11.755,4.246-17.765,5.91
		c-14.33,3.967-28.724,5.507-43.298,0.809c-3.792-1.222-7.725-4.16-11.465-3.027c-3.96,1.199-4.611,6.138-6.158,9.779
		c-0.464,1.092-1.138,2.311-2.503,1.732c-1.318-0.558-1.943-1.886-1.298-3.327c2.639-5.903,5.454-11.57,11.003-15.57
		c5.86-4.225,13.946-7.431,10.282-17.412c-2.188,1.145-4.15,3.044-6.345,4.615c-1.175,0.842-2.528,3.9-4.53,1.815
		c-2.042-2.125,0.49-3.571,1.846-4.789c2.419-2.172,5.052-4.107,7.596-6.143c5.739-4.588,7.48-10.041,4.916-15.865
		c-0.716-1.626-1.084-3.627-3.366-0.494c-3.471,4.764-7.832,8.894-11.966,13.146c-0.703,0.723-1.193,3.154-3.277,1.173
		c-1.655-1.573-1.322-2.51,0.125-3.999c4.251-4.376,8.292-8.955,12.481-13.394c4.137-4.383,4.45-13.292,0.469-18.402
		c-0.458,0.497-1.003,0.916-1.325,1.465c-4.644,7.891-9.407,15.718-13.773,23.761c-1.104,2.033-1.812,2.618-3.772,1.533
		c-2.295-1.269-0.513-2.106,0.177-3.26c2.223-3.719,4.451-7.45,6.398-11.317c3.733-7.418,9.417-13.854,11.275-22.21
		c0.936-4.205,1.532-8.402-1.576-12.813c-8.828,17.273-17.286,33.887-25.85,50.447c-0.638,1.231-0.104,4.439-3.625,2.44
		c-2.937-1.668-0.832-3.188-0.247-4.325c8.83-17.17,17.923-34.207,26.667-51.421c2.814-5.542,2.66-11.441-0.662-18.191
		c-2.746,8.403-5.952,15.526-9.065,22.69c-8.276,19.039-17.208,37.716-29.008,54.889c-4.404,6.409-10.41,11.591-13.956,18.679
		c-1.631,3.26-0.944,5.32,2.028,7.092c4.637,2.768,9.182,5.735,11.698,10.752c1.188,2.368,5.093,5.306,2.293,7.294
		c-3.263,2.316-3.907-2.703-5.304-4.564c-4.349-5.797-10.509-6.103-14.323,0.056c-3.66,5.908-8.491,8.648-15.467,7.897
		c-3.741-0.403-6.864,1.051-9.521,3.917c-5.969,6.44-6.708,14.686-8.814,23.791c4.059-4.264,7.999-6.085,12.908-5.885
		c1.587,0.065,3.6-0.779,4.779-1.888c6.16-5.799,13.799-7.018,21.658-6.894c7.793,0.123,15.515,1.532,23.063,3.489
		c9.93,2.576,19.711,2.713,29.496-0.576c5.731-1.927,10.32-5.862,15.504-8.745c1.825-1.015,3.274-2.126,4.519,0.004
		c1.104,1.888-0.816,2.304-2.132,2.942c-0.868,0.42-1.498,1.332-2.368,1.744c-1.095,0.52-2.281,1.022-1.863,2.384
		c0.374,1.217,1.702,0.591,2.6,0.64c6.684,0.37,12.95,2.179,19.028,4.969c8.541,3.92,15.948,9.452,23.024,16.091
		c0.412-4.6-0.77-7.957-3.917-10.574c-6.875-5.716-15.121-8.392-23.604-10.347c-1.905-0.439-2.629-0.853-2.342-2.694
		c0.398-2.556,2.307-1.428,3.472-1.176c9.01,1.945,17.389,5.491,25.216,10.487c0.584-7.13-0.88-9.281-7.432-10.71
		c-3.622-0.789-7.273-1.491-10.947-1.959c-1.553-0.199-2.396-0.33-2.377-2.207c0.021-2.158,1.396-2.027,2.665-1.822
		c3.985,0.644,7.998,1.229,11.904,2.219c5.74,1.455,8.08,0.364,10.066-5.341c0.261-0.75,0.602-1.859,0.259-2.344
		c-0.578-0.818-1.622-0.51-2.657-0.259c-8.468,2.049-17.082,2.874-25.786,2.66c-1.407-0.034-3.534,0.946-3.433-2.055
		c0.101-2.996,2.271-1.854,3.604-1.862c9.174-0.053,18.226-0.952,27.111-3.318c5.353-1.425,7.702-5.531,9.151-10.333
		C526.208,274.657,526.249,273.437,523.555,274.492z M379.974,299.608c-0.223,2.214-0.923,3.393-2.916,3.303
		c-2.77-0.04-3.047-1.588-3.226-3.622c-0.228-2.597,1.776-3.243,3.215-3.188C378.558,296.16,380.222,297.156,379.974,299.608z"/>
</g>
</svg>
