<?xml version="1.0" encoding="utf-8"?>
<!-- Generator: Adobe Illustrator 16.0.0, SVG Export Plug-In . SVG Version: 6.00 Build 0)  -->
<!DOCTYPE svg PUBLIC "-//W3C//DTD SVG 1.1//EN" "http://www.w3.org/Graphics/SVG/1.1/DTD/svg11.dtd">
<svg version="1.1" xmlns="http://www.w3.org/2000/svg" xmlns:xlink="http://www.w3.org/1999/xlink" x="0px" y="0px"
	 width="1159.86px" height="1159.86px" viewBox="-131.986 -0.002 1159.86 1159.86"
	 enable-background="new -131.986 -0.002 1159.86 1159.86" xml:space="preserve">
<g id="Layer_2_1_">
	<rect x="-131.986" y="-0.002" opacity="0.01" width="1159.86" height="1159.86"/>
</g>
<g id="Layer_1">
	<g id="Layer_2" display="none">
		<rect display="inline" fill="#9C9C9C" width="895.887" height="1160.149"/>
	</g>
	<g id="Logo_UKDW_item_xA0_Image_1_">
		<path d="M31.446,1024.284c8.474,6.266,16.926,10.991,26.675,13.031c4.154,0.87,8.268,1.842,12.563,1.538
			c5.28-0.377,6.49-2.587,4.49-7.353c-2.883-6.877-8.689-11.11-14.25-15.174c-21.042-15.378-37.342-34.436-47.813-59.301
			c1.586,0.863,2.755,1.38,3.796,2.083c17.694,11.965,37.263,18.988,58.166,22.961c13.903,2.644,28.314,2.438,41.752,7.774
			c8.228,3.264,12.414,11.564,10.903,20.133c-2.206,12.497-9.544,20.361-20.3,25.941c-2.736,1.42-3.78,4.578-5.259,7.128
			c-6.917,11.931-10.268,24.96-10.881,38.64c-0.171,3.786-1.725,4.261-4.319,2.971c-9.52-4.725-18.768-9.792-27.147-16.562
			c-10.228-8.271-17.609-18.532-23.56-29.95C34.148,1034.085,31.463,1029.984,31.446,1024.284z"/>
		<path d="M853.727,1021.252c-1.039,7.982-3.775,14.502-7.291,20.498c-10.259,17.475-24.376,31.071-42.543,40.26
			c-10.243,5.176-10.688,4.735-11.311-6.479c-0.702-12.646-3.54-24.799-9.65-36.054c-1.076-1.978-2.398-2.892-4.542-3.82
			c-12.151-5.271-21.634-14.082-20.715-30.62c0.408-7.331,4.655-14.515,12.913-16.356c10.314-2.299,20.793-2.876,31.15-4.582
			c12.091-1.994,23.941-4.781,35.247-9.367c12.211-4.952,23.603-11.543,34.665-19.803c-3.107,10.059-8.404,18.434-14.173,26.435
			c-9.357,12.964-20.917,23.735-33.84,33.181c-3.757,2.741-7.057,6.332-9.761,10.377c-1.943,2.923-3.534,5.944-1.559,8.947
			c2.363,3.589,6.386,3.655,10.205,2.521C833.337,1033.178,843.014,1027.561,853.727,1021.252z"/>
		<path d="M756.949,1030.526c1.825,1.911,3.123,3.265,4.429,4.637C756.75,1037.452,756.327,1034.915,756.949,1030.526z"/>
		<path d="M128.124,1032.192c0.939,3.075-0.71,4.33-5.048,3.4C124.937,1034.344,126.581,1033.233,128.124,1032.192z"/>
		<path d="M784.948,1085.12c-1.02-11.212-2.21-22.265-5.436-32.997c-0.844-2.779-1.086-7.178-5.574-7.243
			c-11.57-0.164-23.143-0.891-34.673-0.88c-100.688,0.085-201.374-1.159-302.054,0.91c-12.313,0.254-24.577-1.463-36.921-0.189
			c-8.369,0.859-16.794-0.553-25.19-0.795c-14.053-0.406-28.122,0.675-42.159,0.741c-72.331,0.345-144.658,0.16-216.991,0.16
			c-1.164,0-2.328,0.043-3.489-0.008c-1.231-0.062-2.013,0.134-2.593,1.543c-1.398,3.401-3.321,6.587-4.693,9.992
			c-6.057,15.036-6.538,30.829-6.007,46.718c0.433,12.865,3.351,25.135,8.623,36.938c1.876,4.202,4.17,5.716,8.836,5.705
			c108.909-0.14,217.818-0.104,326.728-0.104c108.58,0,217.161,0,325.739,0c7.785,0,8.72-0.427,10.491-7.941
			C783.663,1120.409,786.591,1103.148,784.948,1085.12z M171.737,1113.634c-4.765,7.521-12.122,9.296-19.832,9.886
			c-8.083,0.617-16.248,0.003-24.374,0.211c-2.915,0.066-3.553-0.899-3.491-3.628c0.173-7.628,0.062-15.263,0.062-22.89
			c0-7.467-0.033-14.931,0.034-22.396c0.011-1.121-0.763-3.083,1.41-2.989c11.479,0.516,23.082-1.602,34.43,1.401
			c9.208,2.437,13.933,9.354,14.766,18.086C175.442,1098.727,176.268,1106.482,171.737,1113.634z M221.117,1123.73
			c-9.015,1.541-17.817,1.567-26.093-2.567c-6.594-3.3-9.894-9.062-10.037-16.469c-0.099-4.979-0.019-9.961-0.019-14.948
			c0-4.976,0.115-9.961-0.051-14.937c-0.078-2.336,0.534-3.303,3.006-3.073c4.564,0.426,10.502-1.889,13.326,0.98
			c2.187,2.216,0.638,8.161,0.67,12.451c0.041,5.813-0.008,11.623,0.014,17.433c0.027,6.287,3.719,10.035,9.894,10.083
			c5.232,0.037,9.061-4.093,9.061-9.79c0.005-9.298,0.102-18.593-0.062-27.889c-0.045-2.638,0.727-3.433,3.324-3.289
			c3.807,0.21,7.635,0.088,11.453,0.046c2.355-0.027,2.595,1.123,2.55,3.245c-0.19,8.704-0.886,17.385,0.47,26.109
			C240.205,1111.284,231.395,1121.977,221.117,1123.73z M280.759,1094.319c0,8.477-0.099,16.957,0.053,25.431
			c0.056,2.787-0.248,4.301-3.644,3.98c-4.266-0.4-9.896,1.346-12.504-0.798c-2.75-2.257-0.617-8.084-0.849-12.339
			c-0.115-2.154-0.019-4.325-0.019-6.482c0-5.158-0.244-10.323,0.082-15.457c0.219-3.449-1.067-4.197-4.169-3.969
			c-3.476,0.248-6.984-0.041-10.47,0.093c-2.326,0.093-3.449-0.222-3.503-3.124c-0.17-9.888-0.326-9.882,9.675-9.882
			c12.966,0,25.938,0.182,38.896-0.115c3.908-0.085,4.602,1.127,4.501,4.693c-0.246,8.391-0.059,8.391-8.661,8.391
			C280.759,1084.741,280.759,1084.741,280.759,1094.319z M346.146,1123.707c-5.142,0.4-9.402,0.037-9.816-6.632
			c-0.09-1.509-1.37-2.651-3.494-2.47c-3.129,0.273-6.341,0.39-9.446,0c-5.414-0.672-9.236,0.523-9.551,6.735
			c-0.099,1.995-0.94,2.396-2.739,2.352c-4.971-0.108-9.944-0.034-15.479-0.034c2.934-7.533,5.692-14.736,8.548-21.898
			c3.54-8.893,7.192-17.734,10.732-26.627c0.956-2.389,2.301-3.777,5.133-3.409c1.959,0.251,4.034,0.353,5.956-0.008
			c6.695-1.23,10.369,1.143,12.782,7.809c5.372,14.824,11.597,29.345,17.537,44.134
			C352.776,1123.658,349.439,1123.444,346.146,1123.707z M459.91,1074.954c-3.775,15.11-7.054,30.338-10.559,45.514
			c-0.458,1.976-1.318,3.689-3.939,3.212c-0.801-0.144-1.655-0.021-2.485-0.021c-12.51,0.003-12.433-0.014-15.5-12.106
			c-1.604-6.327-3.516-12.58-5.288-18.869c-0.332,0.026-0.657,0.049-0.988,0.075c-2.884,9.247-5.82,18.479-8.586,27.764
			c-0.333,1.124-0.403,2.778-1.455,2.825c-5.293,0.231-10.713,0.769-15.849-0.14c-2.093-0.371-2.058-4.789-2.552-7.299
			c-2.723-13.876-6.488-27.493-9.819-41.216c-0.55-2.245-0.272-2.795,2.072-2.977c13.34-1.036,14.501-0.139,16.557,12.955
			c0.769,4.894,1.845,9.739,3.575,14.582c2.459-8.111,4.925-16.224,7.363-24.342c0.139-0.462-0.158-1.233,0.099-1.452
			c4.181-3.654,9.178-0.875,13.753-1.645c2.04-0.347,3.519,0.04,4.25,2.769c2.178,8.128,4.866,16.121,8.254,24.199
			c1.196-5.667,2.594-11.297,3.545-17.005c1.666-9.986,1.551-10.011,11.391-10.011c1.161,0,2.327,0.035,3.491-0.002
			C459.514,1071.687,460.748,1071.599,459.91,1074.954z M517.3,1123.682c-1.645-0.151-3.318-0.023-4.981-0.023
			c-0.996,0-2.01-0.12-2.984,0.021c-4.025,0.59-6.722-0.19-7.2-5.062c-0.274-2.79-2.269-4.312-5.598-4.023
			c-4.119,0.353-8.298,0.145-12.449,0.059c-2.329-0.042-3.713,0.516-3.814,3.252c-0.174,4.664-2.733,6.621-7.384,5.774
			c-0.807-0.144-1.66-0.021-2.494-0.021c-10.091,0-10,0.04-5.972-9.442c5.684-13.369,11.322-26.771,16.683-40.273
			c0.716-1.806,1.258-2.27,2.915-2.188c1.823,0.087,3.652,0.021,5.483,0.021c11.501,0,11.439,0.027,15.596,10.425
			c4.977,12.453,9.937,24.918,15.206,37.249C521.929,1123.252,520.877,1124.021,517.3,1123.682z M573.184,1117.107
			c-3.629,4.412-8.642,6.18-13.949,6.933c-10.807,1.535-21.229,0.935-29.134-8.046c-4.735-5.377-6.329-11.88-5.857-18.722
			c-0.974-13.827,8.204-24.26,22.19-25.722c8.93-0.935,16.763-0.22,24.274,4.973c3.011,2.088,3.981,5.315,6.116,7.841
			c0.972,1.153,1.025,3.574-2.125,3.443c-1.725-0.069-3.614,0.283-5.189,0.985c-4.451,1.979-7.243,0.302-10.192-3.169
			c-2.489-2.921-5.983-3.08-10.104-2.12c-5.97,1.397-7.059,5.842-7.854,10.303c-0.727,4.125-0.623,8.532,1.094,12.579
			c1.666,3.94,4.772,6.058,9.002,6.261c4.167,0.208,8.035-0.953,9.605-5.123c1.777-4.707,3.964-4.889,8.513-3.258
			C579.476,1107.831,580.004,1108.799,573.184,1117.107z M626.416,1123.692c-2.795,0.07-3.118-1.85-3.388-3.759
			c-0.633-4.444-3.158-5.944-7.43-5.299c-1.623,0.249-3.326,0.182-4.968,0.016c-5.532-0.558-10.503-0.442-11.09,6.947
			c-0.144,1.768-1.501,2.141-3.209,2.101c-4.806-0.114-9.621-0.04-15.046-0.04c6.503-16.17,12.87-31.992,19.227-47.826
			c1.081-2.683,2.227-4.683,5.926-4.181c3.909,0.532,7.953,0.232,11.929,0.074c2.178-0.085,3.223,0.84,3.985,2.747
			c6.504,16.261,13.067,32.498,19.793,49.186C636.624,1123.658,631.517,1123.567,626.416,1123.692z M701.912,1119.865
			c0.049,2.997-0.606,3.879-3.77,3.887c-13.614,0.023-13.582,0.128-21.333-11.487c-1.884-2.819-4.009-5.483-6.051-8.199
			c-2.017-2.68-4.069-5.328-6.837-8.945c0,9.087-0.11,17.041,0.066,24.982c0.056,2.73-0.604,3.599-3.498,3.636
			c-12.536,0.151-12.531,0.259-12.531-11.994c0-12.131,0.077-24.264-0.061-36.393c-0.024-2.683,0.521-3.626,3.468-3.665
			c13.104-0.18,13.027-0.232,20.263,10.289c4.063,5.902,8.425,11.594,13.245,18.195c0-9.026,0.107-17.083-0.056-25.135
			c-0.053-2.581,0.636-3.505,3.292-3.315c4.426,0.313,10.135-1.302,12.956,0.9c2.64,2.061,0.699,8.083,0.736,12.35
			C701.909,1096.602,701.735,1108.239,701.912,1119.865z M753.537,1123.736c-3.278,0.224-4.893-1.023-5.31-4.106
			c-0.555-4.197-2.929-5.617-7.005-5.006c-1.943,0.297-4.023,0.334-5.956,0c-5.762-1.001-9.638,0.713-10.379,6.926
			c-0.209,1.761-0.805,2.157-2.406,2.138c-5.123-0.072-10.256-0.029-15.727-0.029c6.559-16.575,12.822-32.436,19.115-48.282
			c0.965-2.432,2.329-4.042,5.49-3.689c3.437,0.379,7.011,0.462,10.426-0.014c3.905-0.545,5.531,1.466,6.743,4.504
			c6.247,15.705,12.48,31.415,18.868,47.481C762.662,1123.658,758.083,1123.423,753.537,1123.736z"/>
		<path d="M882.017,725.585c-16.261-26.179-32.422-52.425-48.747-78.564c-18.044-28.876-36.357-57.589-54.329-86.51
			c-21.937-35.306-43.536-70.822-65.476-106.135c-17.968-28.915-36.335-57.591-54.305-86.509
			c-21.939-35.309-43.558-70.816-65.478-106.138c-14.653-23.607-29.707-46.969-44.358-70.584
			c-18.612-29.999-36.926-60.189-55.512-90.211c-17.582-28.394-35.391-56.644-52.947-85.054c-1.772-2.867-2.357-1.73-3.446,0.136
			c-2.579,4.439-5.107,8.906-7.764,13.292c-13.897,22.921-27.865,45.797-41.731,68.737c-12.029,19.913-23.904,39.921-35.949,59.829
			c-13.706,22.657-27.585,45.209-41.277,67.877c-13.188,21.84-26.167,43.809-39.374,65.638
			c-10.718,17.721-21.755,35.241-32.449,52.973c-16.157,26.792-32.024,53.752-48.234,80.512
			c-19.381,31.991-39.217,63.713-58.459,95.793c-19.149,31.926-38.368,63.809-57.749,95.596
			c-20.043,32.877-39.572,66.063-59.564,98.971c-1.305,2.146-1.116,3.289-0.237,5.048c20.155,40.49,40.263,80.993,60.454,121.462
			c31.488,63.112,63.069,126.18,94.45,189.345c1.789,3.599,3.636,4.869,7.678,4.861c88.305-0.131,176.611-0.099,264.916-0.099
			c85.979,0,171.961-0.154,257.938,0.222c9.376,0.043,16.116-1.244,18.815-11.183c0.483-1.792,1.979-3.289,2.899-4.977
			c7.408-13.501,14.707-27.052,22.188-40.512c11.452-20.615,23.095-41.133,34.534-61.767c7.544-13.594,14.778-27.366,22.313-40.965
			c11.444-20.629,23.081-41.144,34.534-61.768c5.915-10.651,11.527-21.471,17.427-32.133c9.621-17.409,19.322-34.772,29.117-52.093
			C882.946,728.807,883.141,727.397,882.017,725.585z M866.004,729.496c-6.577,11.204-13.143,22.416-19.675,33.653
			c-7.822,13.449-15.631,26.915-23.394,40.402c-7.523,13.059-14.924,26.188-22.479,39.229
			c-7.875,13.606-15.854,27.152-23.807,40.714c-12.902,22.017-25.889,43.982-38.721,66.038
			c-12.742,21.912-25.371,43.889-37.916,65.907c-1.105,1.928-2.409,3.739-3.353,5.825c-1.074,2.368-3.002,3.759-6.442,3.756
			c-84.145-0.187-168.295-0.149-252.442-0.149c-83.818,0-167.635-0.046-251.45,0.139c-4,0.011-5.718-1.465-7.272-4.581
			c-31.582-63.254-63.168-126.499-94.83-189.708C65.992,794.32,47.641,757.98,29.284,721.643c-1.303-2.573-1.42-4.299,0.331-7.132
			c11.637-18.836,22.804-37.961,34.214-56.939c13.15-21.866,26.434-43.651,39.566-65.525c10.817-18.022,21.482-36.138,32.249-54.189
			c11.338-19.021,22.684-38.034,34.088-57.013c11.655-19.4,23.396-38.744,35.068-58.133c7.945-13.193,15.823-26.423,23.759-39.622
			c10.588-17.598,21.208-35.183,31.806-52.778c12.59-20.89,25.217-41.76,37.743-62.688c11.789-19.688,23.445-39.454,35.199-59.161
			c12.326-20.671,24.67-41.331,37.063-61.964c10.331-17.195,20.78-34.328,31.111-51.523c11.242-18.704,22.483-37.406,33.536-56.222
			c1.479-2.515,2.285-1.8,3.294-0.163c11.056,17.878,22.012,35.813,33.081,53.675c9.479,15.289,19.087,30.503,28.601,45.768
			c13.421,21.525,26.798,43.074,40.205,64.609c11.287,18.129,22.596,36.243,33.88,54.372c13.324,21.399,26.616,42.818,39.945,64.209
			c10.868,17.446,21.789,34.854,32.658,52.294c13.411,21.531,26.794,43.08,40.198,64.613c10.177,16.361,20.383,32.708,30.572,49.06
			c14.09,22.614,28.153,45.255,42.286,67.84c12.02,19.2,24.19,38.297,36.147,57.524c13.313,21.395,26.432,42.906,39.699,64.327
			c9.981,16.106,20.001,32.19,30.19,48.162C866.905,726.821,866.947,727.897,866.004,729.496z"/>
		<path d="M141.061,1097.715c0-2.319-0.283-4.688,0.08-6.948c0.374-2.336-1.89-5.617,1.404-6.907
			c4.461-1.738,11.811,0.722,13.503,4.148c3.043,6.151,2.712,12.62,0.785,18.901c-1.228,4.004-10.769,6.695-14.827,4.738
			c-1.468-0.708-0.895-1.97-0.913-3C141.018,1105.003,141.061,1101.359,141.061,1097.715z"/>
		<path d="M497.076,1103.54c-3.991,0-7.779,0-11.954,0c1.882-6.012,3.684-11.762,5.747-18.343
			C493.092,1091.778,495.079,1097.63,497.076,1103.54z"/>
		<path d="M611.42,1085.408c1.949,5.762,3.508,10.598,5.23,15.375c0.789,2.178,0.343,3.019-2.043,2.938
			c-10.232-0.331-9.92,1.719-6.572-8.23C609.092,1092.336,610.149,1089.183,611.42,1085.408z"/>
		<path d="M742.853,1103.511c-1.13,0.08-1.938,0.179-2.75,0.184c-2.952,0.02-5.91,0.008-9.455,0.008
			c1.962-5.913,3.804-11.463,6.092-18.345C739.036,1092.182,740.915,1097.747,742.853,1103.511z"/>
		<path d="M331.791,1103.569c-4.285,0-8.054,0-12.224,0c1.938-5.804,3.799-11.369,6.084-18.19
			C327.928,1092.124,329.77,1097.584,331.791,1103.569z"/>
		<path d="M111.396,635.342c3.519,13.291,7.272,24.935,12.595,36.085c5.163,10.814,12.435,20.044,20.329,28.813
			c8.855,9.84,11.744,21.146,8.788,33.771c-2.282,9.739,2.331,17.262,6.57,25.628c1.957-8.079,2.307-15.844,3.487-23.474
			c1.714-11.133,0.595-22.318,1.409-33.47c0.462-6.278,0.526-13.451-5.008-19.592c-6.167-6.84-9.782-15.731-11.458-25.052
			c-0.28-1.561-0.521-2.59-2.109-3.43c-10.032-5.311-14.384-14.425-14.787-25.095c-0.852-22.403,7.985-41.45,21.723-58.608
			c1.024-1.285,1.906-1.007,2.899-0.988c1.297,0.029,2.061,0.94,2.162,2.243c0.08,0.993,0.128,2.008,0.013,2.987
			c-1.983,16.909,2.921,32.967,5.67,49.347c1.679,9.995,1.188,20.346-7.21,28.194c-1.025,0.953-1.821,1.999-1.361,3.46
			c2.445,7.76,4.028,15.876,9.818,22.211c1.527,1.669,3.743,2.357,4.864,5.488c10.376-20.096,20.177-39.019,24.261-60.386
			c2.019-10.559,2.862-20.893-0.069-31.368c-1.463-5.2-3.642-10.243-7.376-13.879c-8.332-8.118-12.972-18.001-13.292-29.185
			c-0.24-8.22,2.023-16.508,5.313-24.322c4.805-11.429,11.434-21.837,17.593-32.514c1.351-2.336,2.6-4.836,3.289-7.424
			c0.574-2.127,2.21-1.724,3.401-2.056c1.719-0.477,1.703,1.407,1.938,2.315c3.433,13.363,7.689,26.456,9.306,40.354
			c1.826,15.727-0.315,30.282-7.565,44.196c-1.033,1.98-2.098,4.207-3.769,5.534c-3.391,2.682-2.966,5.677-1.917,9.147
			c1.532,5.046,2.846,10.155,4.386,15.737c2.117-4.955,4.001-9.482,5.977-13.97c5.329-12.088,11.875-23.508,20.067-33.853
			c3.041-3.836,4.02-8.073,4.424-12.438c1.244-13.511,1.976-27.145,0.825-40.631c-0.638-7.465,0.553-15.129-1.751-22.43
			c-1.343-4.256-3.11-8.37-4.477-12.62c-6.663-20.721-1.716-38.714,12.118-55.151c11.853-14.085,26.805-24.836,39.374-38.117
			c3.161-3.342,6.073-6.86,8.826-10.51c0.916-1.212,1.271-1.658,2.931-1.156c1.527,0.459,1.909,0.839,2.21,2.427
			c1.242,6.506,0.828,12.88,0.203,19.456c-0.705,7.464-1.66,14.819-3.262,22.131c-3.655,16.677-10.529,31.95-20.391,45.802
			c-7.542,10.588-16.396,20.006-27.268,27.342c-1.682,1.143-1.313,2.918-1.239,4.522c0.55,11.885,1.039,23.762,1.097,35.674
			c0.043,8.275-2.058,16.416-0.955,24.667c6.857-1.781,10.222-6.591,10.932-13.434c1.177-11.345,2.512-22.796,8.591-32.874
			c2.979-4.946,7.048-8.985,12.187-11.772c8.599-4.667,17.908-8.02,25.818-13.965c0.507-0.382,1.06-0.737,1.645-0.979
			c1.682-0.703,1.735-3.848,5.083-2.36c3.636,1.618,1.556,4.069,1.3,5.601c-3.676,21.891-8.631,43.365-24.84,60.034
			c-5.628,5.792-12.681,9.434-20.746,10.419c-3.644,0.446-5.737,3.014-8.214,4.843c-9.819,7.257-17.593,16.563-24.579,26.488
			c-14.056,19.96-23.805,42.027-31.411,65.117c-1.148,3.488-2.17,7.02-3.433,10.467c-0.793,2.151-0.451,3.11,2.008,2.955
			c8.107-0.508,14.792-4.098,20.553-9.56c2.211-2.101,1.498-5.355,1.773-7.849c1.623-14.868,10.219-24.982,21.469-33.507
			c13.161-9.973,27.465-18.474,39.28-30.174c3.1-3.067,5.623-6.719,8.351-10.152c1.03-1.292,2.227-2.249,3.749-1.175
			c1.02,0.719,1.997,1.416,1.383,3.449c-6.263,20.636-10.562,41.91-20.754,61.225c-9.936,18.821-24.665,25.77-45.891,21.851
			c-1.031-0.189-2.285-0.593-3.22,0.459c-8.826,9.91-20.465,14.509-32.996,17.337c-1.392,0.314-2.358,0.598-3.086,1.922
			c-7.096,12.862-12.531,26.063-12.072,41.264c0.48,15.705,0.106,31.442,0.106,48.245c5.691-10.189,12.44-18.315,18.759-26.741
			c0.846-1.127,1.543-2.026,0.951-3.492c-4.755-11.738-0.099-21.986,6.089-31.309c8.164-12.293,19.745-19.264,34.935-21.087
			c12.777-1.53,26.023-2.788,36.777-11.589c1.775-1.453,3.428-3.015,5.104-4.542c1.471-1.347,2.503-1.996,4.688-0.838
			c2.408,1.279,0.483,2.8,0.307,3.423c-4.83,16.965-11.955,32.756-23.122,46.679c-8.97,11.175-19.665,19.701-33.309,24.175
			c-6.749,2.213-13.607,4.111-20.903,1.868c-5.486-1.684-6.882,3.682-9.203,6.521c-8.991,11.004-16.653,22.878-19.405,37.147
			c-2.074,10.769-0.964,21.487,1.813,32.014c0.764,2.894,0.769,4.276-2.723,5.24c-8.532,2.352-16.709,3.134-25.068-0.827
			c-3.193-1.517-3.332-3.34-2.458-5.95c3.211-9.598,5.155-19.337,4.896-29.559c-0.262-10.388-4.771-19.245-9.208-28.151
			c-1.052-2.105-3.804-2.231-6.028-2.506c-15.251-1.906-26.279-9.865-33.783-23.144c-5.759-10.191-8.183-21.084-9.093-32.729
			C95.48,670.206,100.854,652.934,111.396,635.342z"/>
		<path d="M319.599,646.392c9.296,4.164,18.383,7.063,27.863,8.745c11.704,2.069,23.191,1.564,34.75-1.321
			c10.77-2.691,21.325-6.311,32.751-6.271c9.909,0.031,19.357,1.841,28.642,4.82c19.206,6.167,38.336,5.687,57.488-0.066
			c14.552-4.372,29.059-9.023,44.521-8.559c3.415,0.104,6.819,0.625,10.22,0.988c1.575,0.17,2.438,1.155,2.288,2.688
			c-0.433,4.472,1.146,8.732,1.13,13.218c-0.06,17.646,1.604,35.238,2.089,52.876c0.345,12.465,1.613,24.921,1.946,37.423
			c0.107,4.037-1.708,4.926-4.789,5.531c-12.729,2.507-24.755-0.29-36.429-5.053c-11.752-4.795-23.544-9.784-36.268-10.751
			c-13.627-1.03-26.826,2.213-38.724,8.829c-6.668,3.713-12.061,3.278-18.602,0.124c-11.773-5.674-24.349-8.862-37.545-8.059
			c-11.346,0.694-21.907,4.763-32.495,8.529c-12.899,4.586-26.063,7.59-39.86,7.44c-2.795-0.034-4.013-0.318-3.988-3.668
			c0.147-17.817,1.834-35.564,2.331-53.376c0.299-10.788,1.372-21.626,1.604-32.441C318.68,660.951,320.365,654.023,319.599,646.392
			z"/>
		<path d="M635.156,597.412c-0.638-5.4-2.792-9.205-7.99-10.967c8.665-3.569,13.388,4.168,11.512,10.611
			c-0.719,2.482,0.259,3.238,1.479,4.399c5.355,5.064,10.233,10.516,12.488,17.697c1.477,4.693,2.99,9.432,1.415,14.563
			c-0.684,2.227-0.104,4.146,2.664,5.48c5.753,2.763,11.258,6.084,17.561,7.419c2.382,0.505,4.338,0.729,2.902-3.511
			c-3.54-10.425-6.428-21.076-10.232-31.435c-4.464-12.159-9.942-23.84-15.927-35.318c-2.905-5.569-6.578-10.623-10.172-15.676
			c-6.905-9.707-15.783-17.5-25.665-24.158c-1.486-0.998-2.034-0.144-2.87,0.635c-8.626,8.067-16.438,6.779-25.551,1.498
			c-3.34-1.933-7.139-4.087-8.826-8.195c-0.497-1.212-1.206-1.215-2.589-0.451c-3.604,1.979-6.626,0.331-5.87-3.466
			c0.61-3.083-1.501-1.425-2.086-1.75c-3.182-1.757-5.313-3.762-2.979-7.539c1.073-1.735,1.02-3.444,0.269-5.134
			c-1.414-3.188,0.008-5.583,1.872-8.364c0.779,2.205,1.143,4.09,2.424,5.609c0.95,1.127,1.714,1.49,3.19,0.68
			c1.914-1.051,0.388-1.788,0.048-2.671c-1.406-3.722-3.187-7.339,0.767-10.85c1.916-1.7,3.849-1.97,5.862-1.113
			c2.194,0.937,4.736,2.002,4.231,5.216c-0.465,2.966,1.065,5.31,2.138,7.83c0.804,1.892,1.997,0.979,3.079,0.507
			c1.406-0.619,1.662-1.164,0.621-2.809c-2.986-4.72,0.972-11.693,6.979-11.973c2.652-0.131,7.216-2.317,7.224,3.689
			c0.01,2.347,2.934,0.112,3.342,2.314c1.592-3.308-0.438-6.068-0.299-8.97c6.137,1.925,8.463,6,5.488,11.082
			c-1.046,1.785-0.766,2.018,0.171,3.014c5.788,6.177,7.35,13.574,5.604,21.589c-0.446,2.055-0.073,3.152,1.262,4.194
			c3.038,2.371,6.159,4.64,9.758,7.329c1.334-10.329,2.344-20.186,1.089-30.084c-0.224-1.772-0.596-3.572-0.496-5.336
			c0.443-7.942-1.722-15.764-1.047-23.709c0.142-1.676-0.43-2.87-2.282-3.211c-13.615-2.497-20.982-11.405-24.699-24.072
			c-0.462-1.572-0.641-3.329-3.001-3.473c-2.079-0.12-2.647-2.074-3.622-3.561c-0.948-1.452,0.621-2.04,0.809-3.091
			c0.187-1.076,1.103-0.532,1.928-0.249c3.4,1.164,3.422,1.108,5.646-2.016c-2.726-1.287-6.677-1.417-6.624-5.614
			c0.026-2.517,1.359-5.235,3.866-5.614c3.545-0.532,7.314-0.369,10.859,0.227c3.938,0.656,7.158,2.971,9.113,6.607
			c0.734,1.354,1.234,1.479,2.865,1.129c1.925-0.409,1.196-0.878,1.338-2.211c0.776-7.344,12.371-12.721,18.817-8.976
			c1.811,1.055,2.721,2.305,2.171,4.595c-0.27,1.113-1.346,3.035,1.26,3.417c2.51,0.366,2.701-1.057,2.559-2.929
			c-0.03-0.298,0.101-0.696,0.296-0.917c1.091-1.209-2.249-3.975,1.014-3.984c2.507-0.008,4.336,2.099,4.608,4.852
			c0.229,2.291,0.501,4.971-1.306,6.519c-2.833,2.419-2.715,5.345-2.681,8.503c0.086,8.451-2.724,16.07-7.048,23.185
			c-0.755,1.248-1.808,2.761-3.051,3.191c-5.617,1.948-6.13,6.1-5.929,11.207c0.319,8.302,0.045,16.626,0.093,24.939
			c0.107,19.454,4.725,37.593,15.368,54.094c6.57,10.185,12.139,20.946,17.243,32.562c3.418-4.016,2.38-8.923,4.231-12.863
			c1.221-2.61,0.745-5.694,1.938-8.435c0.646-1.487-0.168-2.598-1.786-3.844c-10.897-8.412-12.581-19.913-10.339-32.644
			c0.439-2.517,1.087-4.853-1.474-7.438c-2.894-2.932-3.372-7.032,1.394-9.922c1.799,5.737,5.745,6.631,11.247,3.961
			c-3.588,0.179-5.195-1.938-6.813-4.514c-1.517-2.402-1.716-4.76-0.307-6.816c1.797-2.622,4.696-3.604,7.838-2.622
			c6.391,1.998,14.784,12.63,14.913,19.413c0.042,1.917,0.746,2.182,1.938,2.208c0.865,0.021,1.516,1.316,2.861-0.475
			c4.325-5.783,14.507-5.954,19.919-0.614c1.649,1.637,3.112,3.318,1.451,5.689c-1.19,1.708,0.295,2.707,1.001,3.625
			c1.346,1.735,1.669-0.603,2.513-0.955c3.143-1.33,6.311-3.948,8.714,1.083c1.523,3.211,0.133,7.459-4.079,8.511
			c-5.889,1.473-8.765,5.304-11.62,10.157c-6.254,10.613-15.544,16.531-28.272,15.93c-4.332-0.203-4.276,3.396-4.898,5.879
			c-4.41,17.6-1.57,34.648,3.708,51.667c4.479,14.45,10.703,28.036,18.156,41.122c1.58,2.756,2.693,4.926,5.489,0.398
			c4.249-6.854,7.888-13.938,11.1-21.298c0.769-1.77,0.139-2.782-1.076-3.839c-8.325-7.2-10.9-16.333-9.669-27.067
			c0.406-3.548,0.377-7.2,1.449-10.588c0.641-2.007-0.851-2.37-1.594-3.003c-1.606-1.383-1.745-2.99-1.745-4.864
			c-0.006-1.469,0.271-2.8,1.614-3.337c1.672-0.671,3.412,0.499,3.663,1.762c1.415,7.179,4.175,1.178,6.332,0.771
			c-6.597-5.014-6.808-10.023-0.841-13.041c2.43-1.228,4.167-0.093,6.01,0.505c8.582,2.8,13.449,10.393,12.368,19.182
			c-0.187,1.566,0.593,2.252,1.615,2.597c1.14,0.382,2.034,0.158,2.292-1.583c0.623-4.197,3.914-5.077,7.495-5.299
			c8.964-0.559,12.359,2.058,15.553,10.742c0.721,1.968,2.181,3.902,3.134,5.993c1.988-2.568,3.945-5.097,5.98-7.718
			c4.468,8.281,3.688,10.449-4.977,14.17c-1.879,0.814-3.449,2.494-3.804,3.994c-0.967,3.991-3.976,6.215-6.287,9.117
			c-6.937,8.713-15.976,12.843-26.932,12.499c-4.307-0.139-6.358,1.017-7.488,5.476c-1.681,6.649-5.932,12.304-8.505,18.703
			c-3.297,8.19-4.65,16.295-3.511,25.046c1.06,8.155,0.021,16.428,1.196,24.658c1.076,7.537,1.543,15.167,3.107,22.645
			c0.187,0.862-0.438,2.066,1.086,2.322c1.124,0.188,1.98-0.268,2.547-1.161c2.168-3.423,4.234-6.906,6.434-10.305
			c1.441-2.216,1.316-4.114-0.301-6.255c-9.392-12.435-6.319-24.821,0.704-36.881c1.572-2.713,3.01-4.604,0.871-7.613
			c-0.956-1.335-0.863-3.559,1.014-4.276c2.702-1.037,1.698,1.905,2.011,2.76c1.289,3.557,3.305,2.287,5.462,1.325
			c-2.895-5.481-2.448-8.901,1.406-11.114c3.823-2.184,10.999,0.838,13.732,5.721c2.363,4.221,2.417,8.857,1.819,13.337
			c-0.389,2.902,0.557,4.254,2.797,5.355c0.867-3.7,2.258-5.149,6.837-4.212c6.172,1.257,11.113,3.748,15.625,7.995
			c3.757,3.529,3.02,7.12,0.3,10.106c-1.686,1.843-2.764,3.527-2.784,6.376c4.398-0.842,6.169-4.926,9.036-7.856
			c1.438,2.173,3.277,4.009,1.468,7.271c-1.728,3.132-4.039,5.011-7.349,4.394c-4.405-0.816-7.092,1.849-9.371,4.376
			c-9.039,10.035-19.873,14.029-32.956,10.3c-2.838-0.812-3.786-0.229-5.459,1.791c-6.741,8.118-9.838,17.646-9.731,27.839
			c0.091,8.201,1.119,16.498,3.233,24.544c1.652,6.303-0.267,8.831-6.544,10.185c-5.771,1.247-11.152,1.047-16.551-1.343
			c-3.335-1.477-4.881-4.015-4.215-7.365c3.408-17.147,1.762-33.983-4.301-50.122c-2.975-7.934-8.215-15.064-14.563-21.015
			c-1.14-1.073-2.524-1.26-4.148,0.29c-10.913,10.415-26.736,8.298-38.037,2.163c-2.304-1.252-4.817-4.736-7.941-0.676
			c-0.357,0.462-3.022,1.02-3.828-0.748c-0.796-1.745,0.924-2.175,2.04-2.655c1.847-0.804,2.226-1.604,1.291-3.674
			c-1.364-3.016-1.999-0.205-2.91,0.074c-3.798,1.162-7.479,1.285-9.647-2.65c-1.933-3.513-1.02-6.526,1.922-9.592
			c5.377-5.606,11.826-6.938,19.142-6.607c4.92,0.219,5.363-0.608,3.006-4.957c-5.833-10.772,2.539-21.091,12.267-23.84
			c3.702-1.049,6.312,1.936,6.607,5.933c0.163,2.176,2.626,0.496,3.951,1.212c1.978,1.062,1.147-1.042,1.092-1.448
			c-0.684-4.628-3.115-7.917-7.731-9.356c1.965-2.661,4.224-1.398,6.13-0.288c3.19,1.858,4.276,5.277,3.497,8.465
			c-0.802,3.23,0.617,4.619,2.616,6.41c7.741,6.943,13.717,15.283,13.238,25.953c-0.291,6.458-0.393,11.251,5.054,16.149
			c5.357,4.831,9.339,11.349,12.739,17.814c2.133-0.601,1.401-2.021,1.406-3.007c0.092-17.896-1.024-35.688-3.798-53.402
			c-0.979-6.236-2.106-12.313-4.023-18.343c-2.416-7.581-6.728-12.664-14.474-15.385c-6.472-2.272-12.607-5.604-18.688-8.837
			c-2.521-1.343-4.282-0.895-5.353,1.201c-3.244,6.341-9.56,7.767-15.36,8.652c-8.768,1.338-17.608-0.034-25.033-5.43
			c-2.894-2.101-4.843-0.112-7.04,0.339c-3.414,0.7-5.963,0.123-8.46-3.024c2.568-0.916,4.981-0.895,6.938-2.48
			c1.855-1.503,0.905-3.147,0.374-4.124c-0.852-1.549-1.6,0.36-2.229,0.822c-2.226,1.645-4.96,1.369-7.347,1.563
			c-2.595,0.209-4.73-1.633-5.779-4.386c-1.057-2.768-0.377-5.144,1.372-7.248c6.335-7.621,14.231-11.802,24.402-10.713
			c1.527,0.171,2.981,0.842,4.184-0.926c1.415-2.091-0.691-2.582-1.471-3.557c-6.888-8.585-5.9-21.607,7.734-24.878
			c3.563-0.859,6.692,0.109,7.827,2.864C630.716,596.029,631.971,597.284,635.156,597.412z"/>
		<path d="M198.938,872.077c5.78-8.07,10.905-15.249,16.055-22.408c18.735-26.062,37.732-51.943,55.998-78.33
			c3.443-4.968,6.146-4.77,10.801-3.472c10.93,3.037,22.139,4.42,33.424,5.733c20.468,2.395,39.462-2.53,58.208-9.603
			c7.333-2.766,15.067-4.552,22.686-4.266c8.241,0.302,16.21,3.091,24.005,6.437c6.492,2.786,8.676,6.129,8.535,13.342
			c-0.531,28.09-0.307,56.196-0.104,84.293c0.026,3.906-1.103,4.875-4.683,4.445c-11.799-1.41-23.588-3.244-35.434-3.82
			c-9.704-0.473-19.47-0.262-29.251,0.345c-21.65,1.338-41.705,9.607-62.76,13.297c-11.418,2-23.084,1.183-34.649,1.095
			c-12.752-0.102-25.318-1.986-37.935-3.737C215.959,874.336,208.223,872.256,198.938,872.077z"/>
		<path d="M446.397,819.205c0-14.295,0.174-28.594-0.104-42.881c-0.085-4.304,0.982-6.635,5.106-8.591
			c8.489-4.034,17.181-7.606,26.49-8.07c8.7-0.43,17.179,2.154,25.391,5.251c15.531,5.854,31.507,10.144,48.224,9.38
			c15.035-0.693,29.948-3.005,44.415-7.361c2.581-0.777,3.638-0.195,5.028,1.783c16.667,23.722,33.387,47.412,50.165,71.059
			c7,9.873,14.09,19.681,21.338,29.371c1.631,2.182,1.135,2.742-1.11,3.05c-15.59,2.138-31.058,4.949-46.803,6.219
			c-12.428,1.002-24.807,0.855-37.17,0.599c-10.956-0.228-21.626-3.291-32.185-6.284c-12.413-3.517-24.873-6.452-37.823-7.731
			c-9.944-0.984-19.866-1.169-29.683-0.539c-11.49,0.729-23.087,1.247-34.441,3.7c-5.871,1.269-6.838,0.357-6.838-5.568
			C446.397,848.131,446.397,833.667,446.397,819.205z"/>
		<path d="M438.775,987.954c-43.717,0-87.435-0.074-131.152,0.112c-4.288,0.019-5.23-1.158-4.987-5.19
			c0.849-14.119,1.46-28.276,2.392-42.377c0.5-7.614-0.454-15.396,1.57-22.967c0.54-2.01,0.875-2.977,3.153-3.511
			c13.281-3.102,26.568-5.536,40.314-6.065c19.087-0.734,36.904,3.206,54.161,11.044c8.855,4.026,17.446,8.667,26.998,11.17
			c8.471,2.214,15.935-0.279,23.29-3.729c11.566-5.424,22.776-11.646,35.388-14.544c5.515-1.27,11.025-2.367,16.695-2.832
			c7.667-0.627,15.292-0.454,22.942,0.043c13.765,0.883,27.204,3.561,40.52,7.029c2.467,0.641,2.063,2.626,2.061,4.407
			c-0.011,9.404,0.774,18.797,1.245,28.167c0.571,11.477,0.835,22.979,1.805,34.436c0.323,3.791-0.722,4.926-4.736,4.909
			C526.548,987.891,482.663,987.954,438.775,987.954z"/>
		<path d="M366.007,524.006c12.835,7.907,26.554,13.481,40.792,18.058c16.103,5.168,32.495,9.223,49.144,11.562
			c12.242,1.719,24.659,2.833,37.091,3.548c11.078,0.641,22.126,0.411,33.178,0.655c3.398,0.076,6.813-0.615,10.219-0.93
			c2.363-0.214,3.316,0.318,2.313,3.051c-3.844,10.513-9.295,20.188-18.756,26.234c-5.051,3.229-11.715,4.116-17.77,5.55
			c-11.101,2.628-22.31,4.39-33.824,4.167c-10.513-0.2-20.354-3.211-30.357-5.779c-10.083-2.584-20.134-4.304-30.784-2.552
			c-6.412,1.054-12.178-3.1-16.736-7.381c-14.055-13.215-21.941-29.657-23.912-48.868
			C366.373,529.078,364.774,527.034,366.007,524.006z"/>
		<path d="M320.672,627.889c0.518-2.731-1.615-7.032,0.876-8.962c2.451-1.894,5.584,1.602,8.409,2.647
			c13.813,5.116,28.047,7.192,42.669,6.096c9.01-0.676,17.485-4.128,26.258-6.096c12.533-2.819,24.797-2.706,37.104,1.042
			c10.948,3.331,22.046,6.588,33.497,6.935c10.185,0.306,20.271-1.673,30.175-4.472c10.317-2.918,20.349-6.777,30.858-9.044
			c7.974-1.715,15.918-0.83,23.858-0.093c1.676,0.151,2.848,1.355,2.889,3.724c0.093,5.056-0.876,10.151,0.763,15.219
			c0.802,2.459-1.762,1.998-2.953,1.775c-17.715-3.311-34.531,1.092-51.171,6.191c-11.233,3.441-22.488,6.124-34.313,5.844
			c-9.957-0.234-19.394-2.929-28.819-5.857c-8.223-2.555-16.861-3.994-25.324-3.863c-10.599,0.158-21.061,2.729-31.296,5.768
			c-21.082,6.26-41.291,3.304-60.955-5.762c-2.011-0.93-2.67-2.068-2.553-4.119C320.766,632.707,320.672,630.542,320.672,627.889z"
			/>
		<path d="M556.16,599.782c0,7.956,0.021,7.648-7.788,7.074c-13.18-0.972-25.764,2.225-38.113,6.429
			c-14.377,4.891-28.912,8.494-44.326,7.545c-8.988-0.556-17.381-3.313-25.846-5.839c-8.449-2.518-17.11-4.202-25.802-4.01
			c-8.34,0.184-16.731,1.652-24.753,4.295c-10.315,3.396-20.86,5.391-31.683,4.397c-11.923-1.098-23.343-4.293-34.048-9.835
			c-1.313-0.687-2.253-1.324-2.12-2.864c0.374-4.202-1.858-9.558,1.426-12.297c2.53-2.111,6.476,1.778,9.851,2.773
			c7.432,2.19,14.96,3.711,22.745,4.496c14.873,1.495,28.693-2.487,42.628-6.5c12.984-3.746,26.034-3.5,38.805,0.761
			c13.813,4.608,27.909,6.589,42.368,5.534c12.744-0.926,25.11-4.002,37.278-7.81c8.82-2.768,17.929-4.156,27.064-4.903
			c3.064-0.251,6.412,0.939,9.696,0.802c1.318-0.063,1.265,0.869,1.721,1.774C556.707,594.476,555.866,597.454,556.16,599.782z"/>
		<path d="M423.81,878.735c-3.935,5.55-7.726,10.545-11.111,15.802c-2.071,3.225-4.522,3.427-7.773,2.458
			c-18.338-5.479-37.049-8.436-56.227-7.804c-11.373,0.374-22.468,2.804-33.53,5.204c-12.611,2.733-25.156,5.541-38.056,6.951
			c-9.939,1.089-19.854,1.155-29.67,0.584c-13.719-0.798-27.473-2.188-40.912-5.51c-0.469-0.114-0.95-0.2-1.43-0.261
			c-9.403-1.186-9.17-1.188-9.274-10.546c-0.04-3.619,1.692-3.95,4.138-3.379c12.157,2.813,24.657,3.397,36.875,5.828
			c3.486,0.69,7.187,0.725,10.713,0.896c11.533,0.555,23.065,2.032,34.636,1.174c15.972-1.19,31.677-4.18,46.865-9.156
			c19.432-6.359,39.374-7.803,59.466-6.567C400.111,875.123,411.829,875.935,423.81,878.735z"/>
		<path d="M450.662,878.562c16.57-2.482,32.257-4.173,48.125-4.439c17.751-0.299,34.836,3.132,51.671,8.15
			c11.788,3.513,23.643,6.126,35.98,7.114c6.925,0.556,13.842,1.05,20.705,0.662c13.004-0.734,25.984-1.807,38.924-3.646
			c9.298-1.327,18.617-2.494,27.862-4.193c1.823-0.337,3.377-0.06,2.977,2.458c-0.054,0.323-0.019,0.662-0.005,0.995
			c0.211,8.878,0.168,8.669-8.647,10.559c-11.925,2.553-23.971,3.858-36.087,5.139c-10.273,1.093-20.53,1.191-30.669,0.553
			c-13.98-0.886-27.742-3.879-41.408-7.211c-16.52-4.022-33.328-6.854-50.405-5.429c-14.472,1.204-28.658,4.434-42.689,8.134
			c-1.818,0.48-2.061,0.452-3.135-1.103C459.851,890.477,455.446,884.927,450.662,878.562z"/>
		<path d="M361.399,526.957c3.646,24.672,11.682,46.683,33.333,61.626C367.216,585.06,346.103,550.182,361.399,526.957z"/>
		<path d="M448.351,907.23c-0.083,0.916-0.978,0.657-1.42,1.002c-5.278,4.092-15.449,4.324-20.532,0.314
			c-1.388-1.097-2.75-2.061-0.736-4.299c3.102-3.456,5.547-7.504,8.428-11.183c0.886-1.132,2.096-3.214,3.828-0.862
			c3.438,4.662,6.762,9.405,10.121,14.123C448.216,906.574,448.249,906.924,448.351,907.23z"/>
		<path d="M704.845,516.651c-0.909,2.555-1.32,4.931-4.789,5.841c-7.381,1.936-7.301,2.248-11.18-4.471
			c-0.163-0.276-0.163-0.711-0.385-0.885c-3.979-3.101-4.037-6.174,0.029-9.236c4.015-3.028,10.374-2.36,13.354,1.351
			C703.636,511.448,704.84,513.835,704.845,516.651z"/>
		<path d="M609.232,615.103c-4.912,0.489-9.142,1.424-13.445,3.087c-3.016,1.166-5.713-1.78-6.602-4.805
			c-1.378-4.693,2.032-11.565,5.737-12.537c4.973-1.3,9.359,2.096,11.266,8.078C606.833,610.952,606.893,613.459,609.232,615.103z"
			/>
		<path d="M620.484,697.971c-2.687-0.382-5.204-3.121-6.095-6.784c-1.012-4.138,1.823-7.394,4.97-9.1
			c2.499-1.349,6.061-1.316,8.423,1.735c0.74,0.955,1.33,1.77,1.236,3.032c-0.094,1.311,0.191,2.683-0.064,3.951
			c-0.467,2.264,2.702,4.863,0.463,6.279C627.51,698.294,624.442,697.678,620.484,697.971z"/>
		<path d="M738.165,584.838c7.722-0.053,11.768,5.345,9.676,12.187c-1.613,5.308-6.236,1.656-9.096,3.577
			c-1.858,1.242-2.686-1.691-2.899-3.288c-0.24-1.811-1.956-2.494-2.416-4.141c-0.475-1.711-3.748-2.169-1.775-5.185
			C733.347,585.38,735.453,584.764,738.165,584.838z"/>
		<path d="M766.696,687.309c-0.113,4.904-2.39,7.464-6.455,7.282c-6.264-0.278-9.345-3.385-8.364-9.528
			c0.616-3.814,4.181-4.52,7.675-4.441C764.245,680.728,766.799,683.098,766.696,687.309z"/>
		<path d="M618.038,415.27c5.275-0.242,7.716,2.806,8.73,6.565c0.873,3.225-3.591,3.734-4.672,6.5
			c-0.868,2.224-2.253-0.241-3.364-0.865c-0.827-0.467-1.679-1.119-2.576-1.22c-3.975-0.448-5.899-2.461-5.083-6.498
			C611.911,415.545,615.817,416.203,618.038,415.27z"/>
		<path d="M764.044,612.607c-1.115-6.076-4.91-9.76-10.351-11.743c-3.985-1.45-1.19-3.615-1.104-5.692
			c0.126-3.067,1.943-2.69,3.641-2.125C764.485,595.792,768.824,605.744,764.044,612.607z"/>
		<path d="M708.989,513.291c9.646,2.325,13.855,9.629,10.719,19.187c-1.751-5.369-5.526-8.167-10.248-9.387
			c-2.499-0.651-1.934-2.536-1.475-3.27C709.261,517.781,708.511,515.626,708.989,513.291z"/>
		<path d="M780.67,707.021c-3.107-3.93-6.768-6.807-10.67-9.368c-1.201-0.785-3.372-1.204-1.722-2.944
			c1.414-1.497,1.454-5.334,5.176-3.785c4.324,1.799,7.134,4.723,7.205,9.674C780.692,702.738,780.67,704.879,780.67,707.021z"/>
		<path d="M617.497,586.827c-5.009,3.265-9.275,5.796-10.551,11.158c-0.267,1.135-1.26,2.66-2.873,1.269
			c-1.44-1.244-3.864-1.871-2.952-4.771c1.161-3.706,6.327-7.331,11.394-7.638C613.833,586.763,615.158,586.827,617.497,586.827z"/>
		<path d="M644.764,421.031c-4.354-1.247-8.058-1.625-11.063-0.504c-3.855,1.442-3.963-1.56-4.492-3.1
			c-0.971-2.848,1.931-2.992,3.549-3.132C637.673,413.875,641.264,416.316,644.764,421.031z"/>
		<path d="M642.401,669.979c-4.279,3.025-8.375,4.987-10.545,9.191c-1.404,2.731-2.515-0.114-3.685-0.561
			c-2.269-0.856-1.246-2.079-0.274-3.351C631.362,670.729,635.849,668.805,642.401,669.979z"/>
		<path d="M590.132,621.404c-2.704,1.123-3.245,5.731-7.09,4.554c-1.735-0.526-1.19-6.563,0.499-8.03
			C585.13,616.548,585.819,616.9,590.132,621.404z"/>
		<path d="M596.661,489.341c-3.855,1.273-6.778,2.191-8.851,4.52c-1.367,1.543-2.304,1.226-3.545-0.112
			c-1.64-1.771-0.433-2.854,0.862-3.682C588.507,487.905,592.066,487.057,596.661,489.341z"/>
		<path d="M616.063,700.165c-1.818,1.236-3.516,2.392-5.406,3.676c-1.34-2.808-0.827-5.776,0.924-6.874
			C613.385,695.832,614.42,699.004,616.063,700.165z"/>
		<path d="M606.561,419.363c-1.396,1.354,2.853,4.616-1.34,4.757c-1.054,0.037-2.979,1.001-3.104-1.166
			C601.948,420.097,604.613,420.145,606.561,419.363z"/>
		<path d="M681.967,509.062c-1.919-0.146-3.033-0.812-2.971-2.069c0.133-2.539,2.947-1.46,4.175-2.659
			c0.063-0.062,1.38,0.987,1.351,1.035C683.654,506.736,682.693,508.042,681.967,509.062z"/>
		<path d="M753.665,676.95c-2.458,3.067-4.602,4.974-6.471,0.137C749.131,675.781,751.278,676.308,753.665,676.95z"/>
		<path d="M723.175,585.246c2.144-0.189,3.521-3.807,5.913-1.446c1.293,1.268-0.702,1.815-1.254,2.515
			C725.844,588.842,724.793,585.346,723.175,585.246z"/>
		<path d="M555.126,578.751c-1.824-10.24-0.942-20.644-1.722-30.959c-0.956-12.608-1.512-25.278-2.072-37.924
			c-0.646-14.472-1.409-28.942-2.028-43.419c-0.551-12.818-1.399-25.62-1.965-38.432c-0.641-14.474-1.418-28.938-2.029-43.418
			c-0.539-12.824-1.384-25.62-1.967-38.429c-0.645-13.975-1.419-27.947-2.017-41.923c-0.561-12.988-1.409-25.957-1.976-38.931
			c-0.635-14.643-1.394-29.278-2.007-43.92c-0.24-5.569-0.897-10.369-4.586-14.918c-3.396-4.204-5.671-9.295-8.557-13.922
			c-14.008-22.489-28.065-44.943-42.087-67.423c-9.6-15.393-19.135-30.826-28.748-46.216c-5.397-8.637-10.892-17.216-16.748-26.467
			c-4.472,7.558-8.596,14.619-12.809,21.626c-13.551,22.559-27.121,45.101-40.714,67.635
			c-11.188,18.551-22.537,37.014-33.554,55.667c-2.822,4.773-7.283,9.17-7.718,14.712c-0.937,11.949-1.363,23.949-2.079,35.927
			c-0.758,12.633-1.282,25.29-1.955,37.93c-0.686,12.978-1.409,25.954-2.012,38.931c-0.598,12.982-1.309,25.957-1.981,38.931
			c-0.681,13.142-1.386,26.282-2.005,39.427c-0.622,13.15-1.329,26.288-1.991,39.433c-0.644,12.812-1.385,25.615-2,38.429
			c-0.614,12.817-1.606,25.631-1.948,38.43c-0.449,16.984-2.27,33.898-2.216,50.898c0.005,2.102-0.406,4.21-0.678,6.269
			c-0.339,2.606-2.05,6.064,1.941,8.241c14.84,8.081,30.855,9.903,47.287,8.673c3.898-0.294,8.321-0.747,12.115-3.379
			c-6.263-1.843-11.015-5.532-15.332-9.6c-8.935-8.404-14.795-18.395-16.57-30.944c-1.644-11.604,1.623-21.201,8.869-29.896
			c1.65-1.984,2.984-2.28,5.344-0.469c3.409,2.613,7.315,4.621,11.143,6.636c18.415,9.704,38.208,15.288,58.662,19.704
			c0-39.349-0.021-78.425,0.051-117.497c0.008-2.432-0.708-3.072-3.073-3.033c-7.817,0.142-15.636-0.08-23.447,0.123
			c-2.88,0.076-3.623-0.832-3.527-3.606c0.203-5.98,0.225-11.979-0.011-17.954c-0.106-2.91,0.871-3.582,3.62-3.519
			c7.646,0.179,15.302-0.077,22.945,0.134c2.923,0.083,3.556-0.899,3.502-3.633c-0.168-8.476,0.12-16.965-0.152-25.438
			c-0.107-3.412,1.036-4.127,4.162-3.997c5.644,0.243,11.323,0.304,16.961-0.021c3.444-0.189,4.065,1.076,3.983,4.175
			c-0.214,7.648,0.256,15.318-0.187,22.942c-0.292,5.059,1.612,6.231,6.252,5.991c6.802-0.35,13.633-0.002,20.451-0.135
			c2.43-0.048,3.527,0.383,3.42,3.197c-0.229,6.146-0.256,12.313,0.006,18.458c0.133,3.092-1.147,3.444-3.738,3.387
			c-7.317-0.149-14.642,0.136-21.949-0.135c-3.396-0.121-4.431,0.648-4.418,4.257c0.147,38.745,0.174,77.497-0.023,116.24
			c-0.027,4.087,1.879,5.013,4.976,5.289c16.851,1.502,33.69,2.997,50.647,3.142c9.317,0.078,18.557-1.949,27.866-0.953
			c-1.896,10.751-7.179,19.691-13.717,29.021c7.822-0.625,14.769-2.338,21.784-0.311
			C555.393,582.536,555.417,580.386,555.126,578.751z M519.975,283.544c-0.736,0.491-0.76,1.039-0.71,1.623
			c0.459,5.054-1.58,9.114-4.906,12.7c-0.416,0.445-1.047,0.814-0.59,1.612c3.459,6.071-0.419,13.039,2.362,19.278
			c0.678,1.527,0.264,3.63,0.074,5.438c-0.267,2.542-0.698,5.897-2.67,6.832c-2.29,1.086-2.714-2.619-4.052-4.061
			c-9.884-10.684-21.923-17.507-36.077-20.428c-7.696-1.591-15.326-0.801-22.833,1.863c-8.883,3.158-17.869,1.703-26.775-0.248
			c-7.752-1.701-15.478-3.71-23.466-3.652c-6.375,0.048-12.483,1.236-17.384,5.938c-2.035,1.949-4.92,3.073-7.47,2.835
			c-5.31-0.502-8.1,2.811-11.229,5.948c-1.399,1.399-1.252,4.829-4.647,3.67c-3.938-1.346-1.097-3.844-1.071-5.948
			c0.088-7.555,2.015-14.643,5.062-21.464c3.652-8.188,9.46-12.691,19.007-12.101c7.606,0.475,10.145-4.252,7.174-11.236
			c-2.608-6.135-7.91-8.046-13.482-9.539c-7.926-2.119-9.456-4.848-7.851-12.696c2.176-10.663,8.161-19.518,13.343-28.627
			c10.727-18.855,20.897-37.863,26.707-58.91c0.317-1.15,0.849-2.245,1.35-3.556c4.849,3.796,6.335,8.895,6.549,14.301
			c0.323,8.097-0.483,16.125,3.532,23.896c1.642,3.177,1.207,8.012,0.299,11.744c-0.833,3.433-0.133,5.887,2.12,8.896
			c11.095-20.212,20.102-41.168,28.355-63.142c5.438,6.218,8.396,12.646,6.922,20.679c-0.352,1.887-0.892,3.967,0.471,5.678
			c4.575,5.743,3.975,12.125,2.188,18.535c-0.523,1.882-0.841,3.067,0.796,4.616c1.857,1.767,3.471,4.25,3.182,6.818
			c-0.748,6.716,0.892,12.972,3.236,19.021c1.591,4.098,1.017,7.782-1.09,11.092c-1.898,2.993-2.432,6.025-2.002,9.269
			c1.062,7.945-2.077,13.462-9.146,16.984c-1.078,0.537-1.971,1.455-3.188,2.378c26.279,12.203,50.539,3.617,74.946-6.303
			C527.639,271.416,527.252,278.69,519.975,283.544z"/>
		<path d="M417.117,217.708c3.125,3.981,1.412,6.973-0.462,10.302c-5.259,9.365-12.874,16.955-18.867,25.754
			c-5.16,7.573-4.551,11.922,2.438,17.171c-3.436,3.006-5.702,2.661-7.742-1.826c-2.397-5.28-6.906-8.42-12.665-9.563
			c-7.625-1.514-10.006-4.154-6.754-12.128c4.496-11.025,10.788-21.074,16.44-31.478c8.249-15.185,16.247-30.479,21.458-47.132
			c2.584,2.037,1.121,4.72,1.498,7.032c1.728,10.553-3.025,19.117-8.22,27.665c-3.241,5.324-5.835,11.039-8.82,16.522
			c-0.676,1.236-1.529,1.746,0.499,2.862c2.149,1.18,2.315,0.197,3.079-1.231c4.981-9.291,10.042-18.541,15.086-27.809
			c3.566,5.075,3.27,17.245-0.526,22.152c-3.465,4.477-6.965,8.935-10.385,13.455c-1.025,1.354-2.013,2.672-0.032,4.357
			c2.776,2.36,2.608-0.98,3.204-1.727C410.066,227.434,413.521,222.573,417.117,217.708z"/>
		<path d="M520.913,270.119c-5.793,2.269-11.733,4.234-17.729,5.9c-14.304,3.956-28.666,5.494-43.208,0.806
			c-3.788-1.22-7.71-4.151-11.446-3.025c-3.951,1.201-4.597,6.127-6.143,9.76c-0.467,1.092-1.134,2.309-2.501,1.73
			c-1.314-0.558-1.938-1.882-1.292-3.321c2.632-5.889,5.44-11.546,10.979-15.534c5.852-4.221,13.919-7.419,10.262-17.379
			c-2.184,1.14-4.138,3.041-6.33,4.61c-1.172,0.835-2.521,3.89-4.523,1.807c-2.037-2.122,0.49-3.563,1.847-4.775
			c2.413-2.171,5.039-4.101,7.575-6.135c5.73-4.579,7.467-10.022,4.907-15.831c-0.715-1.625-1.078-3.617-3.358-0.494
			c-3.465,4.758-7.814,8.877-11.94,13.119c-0.705,0.724-1.189,3.15-3.272,1.172c-1.65-1.569-1.319-2.504,0.125-3.988
			c4.242-4.368,8.276-8.941,12.455-13.37c4.127-4.373,4.441-13.263,0.47-18.367c-0.456,0.501-0.998,0.918-1.324,1.465
			c-4.634,7.875-9.388,15.684-13.744,23.711c-1.103,2.031-1.81,2.611-3.762,1.527c-2.293-1.263-0.515-2.098,0.173-3.249
			c2.219-3.714,4.442-7.435,6.386-11.298c3.727-7.4,9.402-13.823,11.251-22.161c0.935-4.197,1.532-8.388-1.57-12.788
			c-8.813,17.238-17.252,33.813-25.8,50.344c-0.636,1.226-0.102,4.429-3.615,2.435c-2.931-1.666-0.836-3.182-0.249-4.319
			c8.81-17.131,17.887-34.137,26.614-51.313c2.81-5.531,2.654-11.415-0.661-18.151c-2.741,8.382-5.941,15.492-9.046,22.641
			c-8.262,19.002-17.176,37.636-28.949,54.775c-4.394,6.396-10.39,11.568-13.93,18.639c-1.625,3.254-0.939,5.31,2.026,7.08
			c4.626,2.763,9.162,5.724,11.674,10.729c1.185,2.365,5.083,5.299,2.288,7.28c-3.257,2.312-3.9-2.697-5.294-4.558
			c-4.341-5.782-10.486-6.089-14.293,0.057c-3.652,5.897-8.474,8.633-15.436,7.886c-3.732-0.406-6.851,1.043-9.504,3.902
			c-5.953,6.429-6.692,14.656-8.793,23.746c4.047-4.258,7.982-6.073,12.883-5.87c1.581,0.064,3.594-0.782,4.768-1.888
			c6.145-5.79,13.77-7.005,21.613-6.885c7.777,0.125,15.483,1.533,23.015,3.489c9.91,2.565,19.672,2.704,29.439-0.577
			c5.719-1.925,10.299-5.852,15.468-8.727c1.823-1.015,3.268-2.122,4.512,0.003c1.103,1.882-0.814,2.301-2.13,2.937
			c-0.863,0.419-1.493,1.332-2.36,1.74c-1.095,0.518-2.277,1.02-1.861,2.379c0.377,1.217,1.701,0.59,2.595,0.641
			c6.672,0.368,12.924,2.173,18.989,4.955c8.527,3.911,15.916,9.437,22.98,16.06c0.408-4.589-0.77-7.937-3.912-10.553
			c-6.857-5.705-15.088-8.373-23.554-10.323c-1.899-0.438-2.626-0.854-2.338-2.691c0.397-2.549,2.304-1.428,3.465-1.172
			c8.991,1.941,17.355,5.478,25.163,10.465c0.582-7.115-0.877-9.263-7.415-10.692c-3.615-0.782-7.261-1.484-10.924-1.951
			c-1.549-0.198-2.393-0.331-2.371-2.202c0.019-2.155,1.394-2.024,2.656-1.818c3.98,0.646,7.982,1.226,11.877,2.213
			c5.734,1.452,8.067,0.363,10.049-5.329c0.261-0.747,0.601-1.852,0.257-2.338c-0.578-0.817-1.616-0.513-2.649-0.259
			c-8.451,2.045-17.048,2.867-25.734,2.656c-1.401-0.035-3.526,0.942-3.423-2.053c0.1-2.99,2.265-1.85,3.597-1.858
			c9.153-0.054,18.185-0.948,27.054-3.311c5.342-1.425,7.688-5.523,9.132-10.315C523.558,270.287,523.601,269.064,520.913,270.119z
			 M377.625,295.183c-0.225,2.208-0.924,3.388-2.91,3.294c-2.766-0.037-3.041-1.58-3.22-3.615c-0.229-2.586,1.773-3.235,3.209-3.179
			C376.213,291.745,377.871,292.735,377.625,295.183z"/>
	</g>
</g>
</svg>
